<svg xmlns="http://www.w3.org/2000/svg" width="27" height="28" viewBox="0 0 27 28">
  <g id="Group_56427" data-name="Group 56427" transform="translate(7517 -13590)">
    <g id="Group_56437" data-name="Group 56437">
      <g id="Group_56438" data-name="Group 56438">
        <rect id="Frame_Copy" data-name="Frame Copy" width="27" height="28" rx="13.5" transform="translate(-7517 13590)" fill="#fff"/>
        <g id="Group_56439" data-name="Group 56439" transform="translate(-0.072 0.268)">
          <path id="Path_17093" data-name="Path 17093" d="M101.086.158a.346.346,0,0,0-.581,0c-.192.344-4.7,8.454-4.7,10.814a4.993,4.993,0,0,0,9.986,0C105.788,8.613,101.278.5,101.086.158Z" transform="translate(-7603.729 13595.731)" fill="#ff0027"/>
          <path id="Path_17094" data-name="Path 17094" d="M162.8,344.266a3,3,0,0,1-3-3,.333.333,0,0,1,.666,0,2.33,2.33,0,0,0,2.33,2.33.333.333,0,1,1,0,.666Z" transform="translate(-7665.732 13265.435)" fill="#fff" stroke="#fff" stroke-width="0.5"/>
        </g>
      </g>
    </g>
  </g>
</svg>
