<svg xmlns="http://www.w3.org/2000/svg" width="23.229" height="20.326" viewBox="0 0 23.229 20.326">
  <path id="camera" d="M23.23,7.331V20.4a2.178,2.178,0,0,1-2.178,2.178H2.178A2.178,2.178,0,0,1,0,20.4V7.331A2.178,2.178,0,0,1,2.178,5.154H6.17l.558-1.493A2.175,2.175,0,0,1,8.766,2.25h5.694A2.175,2.175,0,0,1,16.5,3.661l.563,1.493h3.993A2.178,2.178,0,0,1,23.23,7.331Zm-6.17,6.533a5.444,5.444,0,1,0-5.444,5.444A5.449,5.449,0,0,0,17.059,13.865Zm-1.452,0a3.993,3.993,0,1,1-3.993-3.993A4,4,0,0,1,15.607,13.865Z" transform="translate(0 -2.25)" fill="#fff"/>
</svg>
