<svg id="edit" xmlns="http://www.w3.org/2000/svg" width="16.103" height="16.102" viewBox="0 0 16.103 16.102">
  <path id="Path_52464" data-name="Path 52464" d="M12.748,91.184a.671.671,0,0,0-.671.671v5.368a.672.672,0,0,1-.671.671H2.013a.672.672,0,0,1-.671-.671V87.829a.672.672,0,0,1,.671-.671H7.38a.671.671,0,0,0,0-1.342H2.013A2.015,2.015,0,0,0,0,87.829v9.393a2.015,2.015,0,0,0,2.013,2.013h9.393a2.015,2.015,0,0,0,2.013-2.013V91.855a.67.67,0,0,0-.671-.671Zm0,0" transform="translate(0 -83.133)" fill="#423869"/>
  <path id="Path_52465" data-name="Path 52465" d="M182.381,73.571a.339.339,0,0,0-.092.171l-.474,2.373a.335.335,0,0,0,.33.4.318.318,0,0,0,.066-.007l2.372-.474a.334.334,0,0,0,.172-.092l5.309-5.309-2.372-2.372Zm0,0" transform="translate(-176.09 -66.131)" fill="#423869"/>
  <path id="Path_52466" data-name="Path 52466" d="M394.746.992a1.678,1.678,0,0,0-2.372,0l-.929.929,2.372,2.372.929-.929a1.677,1.677,0,0,0,0-2.372Zm0,0" transform="translate(-379.134 -0.501)" fill="#423869"/>
</svg>
