<svg xmlns="http://www.w3.org/2000/svg" width="53" height="53" viewBox="0 0 53 53">
  <g id="Group_57030" data-name="Group 57030" transform="translate(807 3437)">
    <g id="Group_40" data-name="Group 40" transform="translate(-807 -3437)">
      <rect id="Rectangle_22" data-name="Rectangle 22" width="53" height="53" rx="12" fill="#fe346e" opacity="0.2"/>
      <g id="Group_46" data-name="Group 46" transform="translate(17.412 16.338)">
        <path id="Path_13039" data-name="Path 13039" d="M115.937,0a5.146,5.146,0,1,0,5.146,5.146A5.16,5.16,0,0,0,115.937,0Z" transform="translate(-107.065)" fill="#fe346e"/>
        <path id="Path_13040" data-name="Path 13040" d="M41.87,251.585a4.8,4.8,0,0,0-.517-.944,6.4,6.4,0,0,0-4.427-2.787.947.947,0,0,0-.652.157,5.486,5.486,0,0,1-6.472,0,.843.843,0,0,0-.652-.157,6.351,6.351,0,0,0-4.427,2.787,5.532,5.532,0,0,0-.517.944.478.478,0,0,0,.022.427,8.965,8.965,0,0,0,.607.9,8.541,8.541,0,0,0,1.034,1.169,13.475,13.475,0,0,0,1.034.9,10.249,10.249,0,0,0,12.226,0,9.885,9.885,0,0,0,1.034-.9,10.377,10.377,0,0,0,1.034-1.169,7.881,7.881,0,0,0,.607-.9A.384.384,0,0,0,41.87,251.585Z" transform="translate(-24.165 -237.18)" fill="#fe346e"/>
      </g>
    </g>
  </g>
</svg>
