<svg xmlns="http://www.w3.org/2000/svg" width="53" height="54" viewBox="0 0 53 54">
  <g id="Group_57029" data-name="Group 57029" transform="translate(807 3158)">
    <g id="Group_40" data-name="Group 40" transform="translate(-807 -3158.477)">
      <rect id="Rectangle_22" data-name="Rectangle 22" width="53" height="54" rx="12" transform="translate(0 0.477)" fill="#fce0d0"/>
    </g>
    <g id="presentation" transform="translate(-794 -3143)">
      <path id="Path_17499" data-name="Path 17499" d="M207.079,0h-11.8A2.473,2.473,0,0,0,192.8,2.473V8.288l1.928.958.963-1.927a2.362,2.362,0,1,1,4.225,2.112L198.2,12.866a3.586,3.586,0,0,1-.123,1.356h1.133l-2.989,8.219a.787.787,0,1,0,1.479.538l3.184-8.757h.552l3.217,8.759a.787.787,0,0,0,1.478-.543l-3.018-8.217h3.965a2.473,2.473,0,0,0,2.473-2.473V2.473A2.473,2.473,0,0,0,207.079,0Zm-1.687,10.849H201.86a.787.787,0,1,1,0-1.574h3.532a.787.787,0,0,1,0,1.574Zm0-2.951H201.86a.787.787,0,1,1,0-1.574h3.532a.787.787,0,0,1,0,1.574Zm0-2.951h-8.431a.787.787,0,0,1,0-1.574h8.431a.787.787,0,0,1,0,1.574Zm0,0" transform="translate(-182.683)" fill="#ff7f34"/>
      <path id="Path_17500" data-name="Path 17500" d="M13.85,42.309a2.035,2.035,0,0,0,.021-1.249l1.954-3.907a.787.787,0,1,0-1.408-.7l-1.666,3.332L9.023,37.927A6.751,6.751,0,0,0,5.7,36.857H5a3.429,3.429,0,1,0-2.5-1.079A3.42,3.42,0,0,0,5,36.857a5.028,5.028,0,0,0-3.536,1.464A4.963,4.963,0,0,0,0,41.86V44.39a2.478,2.478,0,0,0,1.686,2.345v4.4a.787.787,0,0,0,.787.787H7.532a.787.787,0,0,0,.787-.787V42.29l2.52,1.26a2.156,2.156,0,0,0,3.007-1.232l0-.009Zm0,0" transform="translate(0 -28.425)" fill="#ff7f34"/>
    </g>
  </g>
</svg>
