<svg xmlns="http://www.w3.org/2000/svg" width="65" height="65" viewBox="0 0 65 65">
  <g id="micro" transform="translate(-16.617 -16.823)">
    <rect id="Rectangle_105" data-name="Rectangle 105" width="65" height="65" rx="5" transform="translate(16.617 16.823)" fill="#a7b437"/>
    <g id="microscope_1_" data-name="microscope (1)" transform="translate(32.288 26.613)">
      <g id="Group_56012" data-name="Group 56012" transform="translate(0 0)">
        <path id="Path_52463" data-name="Path 52463" d="M95.76,38.139a14.989,14.989,0,0,0-8.034-22.194,5.664,5.664,0,0,0-3.807-2.6l.885-1.77a.946.946,0,0,0-.423-1.269l.846-1.692A.948.948,0,0,0,86.5,8.188l1.991-3.982a.946.946,0,0,0-.423-1.269L82.39.1a.946.946,0,0,0-1.269.423L79.13,4.5a.946.946,0,0,0,.423,1.269l-.846,1.692a.948.948,0,0,0-1.269.423l-7.665,15.33a.946.946,0,0,0,.423,1.269l5.674,2.837a.946.946,0,0,0,1.269-.423l1.923-3.846a5.6,5.6,0,0,0,7.167.441,7.544,7.544,0,0,1-3.317,14.33H75.348V35.935h2.837a.946.946,0,0,0,0-1.891H64.946a.946.946,0,0,0,0,1.891h2.837v1.891A3.786,3.786,0,0,0,64,41.609v2.837a.945.945,0,0,0,.946.946H97.1a.945.945,0,0,0,.946-.946V41.609A3.786,3.786,0,0,0,95.76,38.139ZM82.913,20.8A1.891,1.891,0,1,1,84.8,18.913,1.894,1.894,0,0,1,82.913,20.8Z" transform="translate(-64 0)" fill="#fff"/>
      </g>
    </g>
  </g>
</svg>
