<svg xmlns="http://www.w3.org/2000/svg" width="27" height="28" viewBox="0 0 27 28">
  <g id="Group_56428" data-name="Group 56428" transform="translate(7517 -13668)">
    <g id="Group_51631" data-name="Group 51631" transform="translate(-7579 13668)">
      <g id="Group_57071" data-name="Group 57071">
        <g id="Group" transform="translate(61.902)">
          <rect id="Frame_Copy" data-name="Frame Copy" width="27" height="28" rx="13.5" transform="translate(0.098 0)" fill="#fff"/>
        </g>
      </g>
    </g>
    <g id="Group_56435" data-name="Group 56435" transform="translate(0.22 0.268)">
      <path id="Path_17078" data-name="Path 17078" d="M48.953,37.2a6.07,6.07,0,0,1-12.139,0c0-3.352,6.07-10.658,6.07-10.658S48.953,33.843,48.953,37.2Z" transform="translate(-7546.472 13647.194)" fill="#8ecbfd"/>
      <path id="Path_17079" data-name="Path 17079" d="M39.289,30.922a2.5,2.5,0,1,1-4.994,0c0-1.379,2.5-4.385,2.5-4.385S39.289,29.543,39.289,30.922Z" transform="translate(-7544.515 13647.194)" fill="#b7ddfe"/>
      <path id="Path_17080" data-name="Path 17080" d="M82.631,28.7a1.229,1.229,0,1,1-2.459,0c0-.679,1.229-2.159,1.229-2.159S82.631,28.017,82.631,28.7Z" transform="translate(-7580.149 13647.194)" fill="#65bafc"/>
      <path id="Path_17081" data-name="Path 17081" d="M46.961,77.814a4.9,4.9,0,0,1-4.9-4.9.391.391,0,1,1,.781,0,4.121,4.121,0,0,0,4.116,4.116.391.391,0,0,1,0,.781Z" transform="translate(-7550.548 13611.473)" fill="#fff"/>
    </g>
  </g>
</svg>
