<svg xmlns="http://www.w3.org/2000/svg" width="65" height="65" viewBox="0 0 65 65">
  <g id="Group_57001" data-name="Group 57001" transform="translate(-16.617 -15.698)">
    <rect id="Rectangle_105" data-name="Rectangle 105" width="65" height="65" rx="5" transform="translate(16.617 15.698)" fill="#423869"/>
    <path id="Vector" d="M27.04,17.126a1.866,1.866,0,0,1-.785-.174.943.943,0,0,1-.164-.1L21.1,13.194a1.99,1.99,0,0,1-.6-.718,2.08,2.08,0,0,1-.217-.927V6.558a2.08,2.08,0,0,1,.217-.927,1.99,1.99,0,0,1,.6-.718l4.992-3.66a.943.943,0,0,1,.164-.1,1.865,1.865,0,0,1,1.837.151,1.983,1.983,0,0,1,.645.727,2.079,2.079,0,0,1,.234.96V15.113a2.055,2.055,0,0,1-.566,1.423,1.893,1.893,0,0,1-1.366.589Zm-11.83.981H4.1a4.027,4.027,0,0,1-2.9-1.253A4.372,4.372,0,0,1,0,13.832V4.275A4.372,4.372,0,0,1,1.2,1.253,4.027,4.027,0,0,1,4.1,0H15.239a4,4,0,0,1,2.88,1.245,4.342,4.342,0,0,1,1.2,3v9.587a4.372,4.372,0,0,1-1.2,3.022,4.027,4.027,0,0,1-2.9,1.253Z" transform="translate(35.096 39.946)" fill="#fff"/>
  </g>
</svg>
