<svg xmlns="http://www.w3.org/2000/svg" width="51" height="51" viewBox="0 0 51 51">
  <g id="videocall" transform="translate(885 -3985)">
    <g id="video" transform="translate(-884.52 3984.825)">
      <rect id="Rectangle_105" data-name="Rectangle 105" width="51" height="51" rx="5" transform="translate(-0.48 0.175)" fill="#423869"/>
    </g>
    <path id="Vector" d="M21.233,13.448a1.465,1.465,0,0,1-.616-.137.74.74,0,0,1-.128-.076l-3.92-2.874A1.562,1.562,0,0,1,16.1,9.8a1.633,1.633,0,0,1-.171-.728V5.149a1.633,1.633,0,0,1,.171-.728,1.562,1.562,0,0,1,.473-.564L20.489.983a.74.74,0,0,1,.128-.076,1.465,1.465,0,0,1,1.443.119,1.557,1.557,0,0,1,.507.571,1.632,1.632,0,0,1,.184.754v9.517a1.614,1.614,0,0,1-.444,1.117,1.487,1.487,0,0,1-1.072.463Zm-9.29.771H3.223a3.162,3.162,0,0,1-2.278-.984A3.433,3.433,0,0,1,0,10.862v-7.5A3.433,3.433,0,0,1,.945.984,3.162,3.162,0,0,1,3.223,0h8.744a3.14,3.14,0,0,1,2.262.978,3.409,3.409,0,0,1,.938,2.356v7.528a3.433,3.433,0,0,1-.945,2.373,3.162,3.162,0,0,1-2.278.984Z" transform="translate(-870.489 4003.172)" fill="#fff"/>
  </g>
</svg>
