<svg xmlns="http://www.w3.org/2000/svg" width="51" height="51" viewBox="0 0 51 51">
  <g id="voice" transform="translate(0.48 0.406)">
    <rect id="Rectangle_105" data-name="Rectangle 105" width="51" height="51" rx="5" transform="translate(-0.48 -0.406)" fill="#12c719"/>
    <g id="Group_1011" data-name="Group 1011" transform="translate(14.608 14.064)">
      <path id="Vector" d="M17.448,21.779a9.161,9.161,0,0,1-4.278-1.458A27.816,27.816,0,0,1,6.451,15.3,25.5,25.5,0,0,1,1.405,8.578C-.386,5.321-.081,3.613.261,2.883A4.545,4.545,0,0,1,2.042.972,8.571,8.571,0,0,1,3.435.233L3.569.174a1.3,1.3,0,0,1,1.067-.1A3.126,3.126,0,0,1,5.65.855,16.855,16.855,0,0,1,8.186,4.619a3.75,3.75,0,0,1,.5,1.542,2.436,2.436,0,0,1-.62,1.449c-.064.087-.127.17-.188.251-.37.486-.451.627-.4.878a9.222,9.222,0,0,0,2.246,3.331,8.84,8.84,0,0,0,3.292,2.191c.262.056.4-.029.907-.412.072-.055.146-.112.223-.169a2.449,2.449,0,0,1,1.471-.658h0a3.523,3.523,0,0,1,1.549.544,18.571,18.571,0,0,1,3.75,2.517,3.125,3.125,0,0,1,.78,1.012,1.311,1.311,0,0,1-.1,1.07c-.018.04-.038.085-.059.134a8.58,8.58,0,0,1-.743,1.389,4.546,4.546,0,0,1-1.914,1.778A3.278,3.278,0,0,1,17.448,21.779Z" transform="translate(0 0)" fill="#fff"/>
    </g>
  </g>
</svg>
