<svg xmlns="http://www.w3.org/2000/svg" width="11.823" height="11.824" viewBox="0 0 11.823 11.824">
  <g id="full-size" transform="translate(0.15 0.148)">
    <path id="Path_54124" data-name="Path 54124" d="M.4,3.485a.4.4,0,0,0,.4-.4V1.372L3.387,3.957a.4.4,0,1,0,.568-.568L1.37.8H3.082a.4.4,0,1,0,0-.8H.4A.4.4,0,0,0,0,.4v2.68A.4.4,0,0,0,.4,3.485Z" fill="#61529d" stroke="#61529d" stroke-width="0.3"/>
    <path id="Path_54125" data-name="Path 54125" d="M141.505,138.422a.4.4,0,0,0-.4.4v1.711l-2.664-2.664a.4.4,0,1,0-.568.568l2.664,2.664h-1.711a.4.4,0,0,0,0,.8h2.68a.4.4,0,0,0,.4-.4v-2.68A.4.4,0,0,0,141.505,138.422Z" transform="translate(-130.383 -130.379)" fill="#61529d" stroke="#61529d" stroke-width="0.3"/>
    <path id="Path_54126" data-name="Path 54126" d="M3.472,137.87.808,140.534v-1.711a.4.4,0,1,0-.8,0v2.68a.4.4,0,0,0,.4.4h2.68a.4.4,0,0,0,0-.8H1.375l2.664-2.664a.4.4,0,0,0-.568-.568Z" transform="translate(-0.005 -130.379)" fill="#61529d" stroke="#61529d" stroke-width="0.3"/>
    <path id="Path_54127" data-name="Path 54127" d="M142.919,0h-2.68a.4.4,0,0,0,0,.8h1.711l-2.584,2.585a.4.4,0,0,0,.568.568l2.584-2.585V3.083a.4.4,0,0,0,.8,0V.4A.4.4,0,0,0,142.919,0Z" transform="translate(-131.797 0)" fill="#61529d" stroke="#61529d" stroke-width="0.3"/>
  </g>
</svg>
