<svg xmlns="http://www.w3.org/2000/svg" width="50" height="50" viewBox="0 0 50 50">
  <g id="Group_57035" data-name="Group 57035" transform="translate(2449 4613)">
    <g id="Group_56866" data-name="Group 56866" transform="translate(-2499 -5337)">
      <rect id="Rectangle_18271" data-name="Rectangle 18271" width="50" height="50" rx="10" transform="translate(50 724)" fill="#fff" opacity="0.05"/>
      <g id="wallet_2_" data-name="wallet (2)" transform="translate(64 738)">
        <g id="Group_55703" data-name="Group 55703">
          <g id="Group_55702" data-name="Group 55702" transform="translate(0)">
            <path id="Path_17339" data-name="Path 17339" d="M20.6,18.086H17.083a4.019,4.019,0,0,1,0-8.038H20.6a.5.5,0,0,0,.5-.5V8.038a2.005,2.005,0,0,0-1.85-1.993L16.368,1.006A1.988,1.988,0,0,0,13.64.271L3.75,6.029H2.012A2.011,2.011,0,0,0,0,8.038V20.1A2.011,2.011,0,0,0,2.012,22.1h17.08A2.011,2.011,0,0,0,21.1,20.1V18.588A.5.5,0,0,0,20.6,18.086ZM16.991,4.117l1.095,1.912H13.707ZM5.746,6.029l8.4-4.89a.972.972,0,0,1,.746-.1.985.985,0,0,1,.6.467v0L7.73,6.029Z" transform="translate(-0.003 0)" fill="#fff"/>
            <path id="Path_17340" data-name="Path 17340" d="M305.2,234.674h-3.517a3.014,3.014,0,0,0,0,6.028H305.2a1.509,1.509,0,0,0,1.507-1.507v-3.014A1.509,1.509,0,0,0,305.2,234.674Zm-3.517,4.019a1,1,0,1,1,1-1A1.006,1.006,0,0,1,301.684,238.693Z" transform="translate(-284.604 -223.622)" fill="#fff"/>
          </g>
        </g>
      </g>
    </g>
  </g>
</svg>
