<svg xmlns="http://www.w3.org/2000/svg" xmlns:xlink="http://www.w3.org/1999/xlink" width="78" height="78" viewBox="0 0 78 78">
  <defs>
    <filter id="Frame_Copy" x="0" y="0" width="78" height="78" filterUnits="userSpaceOnUse">
      <feOffset dy="3" input="SourceAlpha"/>
      <feGaussianBlur stdDeviation="8.5" result="blur"/>
      <feFlood flood-color="#e2e2e2" flood-opacity="0.502"/>
      <feComposite operator="in" in2="blur"/>
      <feComposite in="SourceGraphic"/>
    </filter>
  </defs>
  <g id="Group_57009" data-name="Group 57009" transform="translate(891.5 4631.5)">
    <g id="Group" transform="translate(-866.385 -4609)">
      <g transform="matrix(1, 0, 0, 1, -25.12, -22.5)" filter="url(#Frame_Copy)">
        <rect id="Frame_Copy-2" data-name="Frame Copy" width="27" height="27" rx="13.5" transform="translate(25.5 22.5)" fill="#fff"/>
      </g>
    </g>
    <path id="Path_17090" data-name="Path 17090" d="M22.329,20.3c-.1.166-.214.331-.33.494-1.562,2.2-4.139,4.171-6.784,6.173C12.623,25,10.1,23.071,8.527,20.924c-.112-.154-.219-.309-.323-.465a6.736,6.736,0,0,1-1.031-5.724c1.138-2.894,5.143-4.948,8.042.279,2.9-5.227,6.9-3.173,8.042-.279a6.68,6.68,0,0,1-.928,5.561Z" transform="translate(-867.923 -4614.794)" fill="#ff0027"/>
    <path id="Path_17091" data-name="Path 17091" d="M29.865,39.575c-.1.166-.214.331-.33.494a.254.254,0,0,1-.1-.141l-.445-1.6-.632,1.708a.253.253,0,0,1-.238.167h-.526l-.333.693a.256.256,0,0,1-.423.055l-.375-.436-.279,1.5a.255.255,0,0,1-.231.208.258.258,0,0,1-.26-.173L24.7,39.135l-.676.96a.256.256,0,0,1-.208.108H22a.252.252,0,0,1-.248-.2l-.009-.042-.9-4.278-1.809,6.556a.258.258,0,0,1-.237.186h-.009a.254.254,0,0,1-.24-.17l-1.158-3.309-.654,1.124a.273.273,0,0,1-.225.137h-.446c-.112-.154-.219-.309-.323-.465a.254.254,0,0,1,.142-.044h.479l.864-1.485a.255.255,0,0,1,.244-.125.251.251,0,0,1,.215.169l1.071,3.062,1.871-6.78a.254.254,0,0,1,.494.016L22.2,39.694h1.482l.888-1.261a.255.255,0,0,1,.449.065l.838,2.47.2-1.066a.254.254,0,0,1,.443-.119l.468.543.234-.488a.258.258,0,0,1,.23-.144h.508l.844-2.281a.255.255,0,0,1,.484.02Z" transform="translate(-875.459 -4634.072)" fill="#fff"/>
    <path id="Path_17092" data-name="Path 17092" d="M-2152.1,4570.841s-2.661-.251-2.966,3.059" transform="translate(1295.133 -9172.883)" fill="none" stroke="#fff" stroke-linecap="round" stroke-width="0.7"/>
  </g>
</svg>
