<svg xmlns="http://www.w3.org/2000/svg" width="50" height="50" viewBox="0 0 50 50">
  <g id="Group_57033" data-name="Group 57033" transform="translate(2449 4829)">
    <g id="Group_56864" data-name="Group 56864" transform="translate(-2499 -5337)">
      <rect id="Rectangle_18269" data-name="Rectangle 18269" width="50" height="50" rx="10" transform="translate(50 508)" fill="#fff" opacity="0.05"/>
      <g id="Map" transform="translate(65 521)">
        <path id="Combined_Shape" data-name="Combined Shape" d="M0,24l0-8.474c.006-.336-.022-3.929,3.443-4.767.243,1.471,1.322,5.461,5.858,5.892a1.379,1.379,0,0,0-.015.166,2.728,2.728,0,0,0,1.226,2.068,1.483,1.483,0,0,1,.369,2.1c-.647.96-2.193,1.454-3.979.662a1.2,1.2,0,1,0-.311.82,5.124,5.124,0,0,0,2.044.45A3.521,3.521,0,0,0,11.6,21.47a2.345,2.345,0,0,0-.534-3.256c-.6-.5-.921-.977-.913-1.353a.665.665,0,0,1,.029-.171,6.6,6.6,0,0,0,6.3-5.648c2.743,1.225,2.576,4.484,2.576,4.484L19.08,24Zm10.132-8.407a.447.447,0,0,0-.1.011,5.568,5.568,0,0,1-5.724-4.976c.222-.02.455-.02.7-.02H7.067a5.4,5.4,0,0,1-2.933-4.8c0-.175.008-.352.024-.515H7.29a3.108,3.108,0,0,1-.843-1.725H4.617A5.357,5.357,0,0,1,7.384.871,3.124,3.124,0,0,1,11.791.95a5.384,5.384,0,0,1,2.59,2.623H12.648A3.1,3.1,0,0,1,11.805,5.3h3.034c.015.169.023.347.023.515a5.406,5.406,0,0,1-2.93,4.8h2.152a6.667,6.667,0,0,1,1.55.158,5.743,5.743,0,0,1-2.75,4.128,5.637,5.637,0,0,1-2.628.715A.426.426,0,0,0,10.135,15.593ZM7.289,3.131A2.258,2.258,0,1,0,9.547.873,2.26,2.26,0,0,0,7.289,3.131Zm1.215,0A1.043,1.043,0,1,1,9.547,4.173,1.042,1.042,0,0,1,8.5,3.13Z" fill="#fff"/>
      </g>
    </g>
  </g>
</svg>
