<svg xmlns="http://www.w3.org/2000/svg" width="50" height="50" viewBox="0 0 50 50">
  <g id="Group_57032" data-name="Group 57032" transform="translate(2449 4937)">
    <g id="Group_56862" data-name="Group 56862" transform="translate(-2499 -5337)">
      <rect id="Rectangle_18268" data-name="Rectangle 18268" width="50" height="50" rx="10" transform="translate(50 400)" fill="#fff" opacity="0.05"/>
      <g id="Icons_24px_CC_Copy" data-name="Icons/24px/CC Copy" transform="translate(63 414)">
        <path id="Shape" d="M11.484,21.034A4.127,4.127,0,0,1,8.422,19.81,8.487,8.487,0,0,1,6.855,16a3.554,3.554,0,0,0-.5-1.458C1.891,11.429-.241,8.458.022,5.71A6.205,6.205,0,0,1,2.992,1.337a1.8,1.8,0,1,1,.472,1.74C3.449,3.091,1.812,4.652,1.7,5.885A5.03,5.03,0,0,0,2.957,9.278l8.465,0A4.967,4.967,0,0,0,12.7,5.867,4.314,4.314,0,0,0,10.76,2.938,1.8,1.8,0,1,1,11.021,1.1a6.354,6.354,0,0,1,3.355,4.614c.246,2.6-1.612,5.372-5.521,8.249a1.044,1.044,0,0,0-.418.951c.116,1.056.424,2.944,1.191,3.721a2.473,2.473,0,0,0,1.858.717c.084,0,.168,0,.249-.008,1.868-.115,2.323-1.377,2.91-3.426l0-.007c.4-1.392.815-2.832,2.1-3.467a2.975,2.975,0,0,1,1.336-.295h.1a3.16,3.16,0,1,1,2.663,4.86A2.959,2.959,0,0,1,17.691,14.1h-.006c-.033,0-.062-.034-.094-.075s-.059-.074-.084-.074a.026.026,0,0,0-.012,0c-.618.3-.914,1.336-1.227,2.427-.54,1.878-1.28,4.449-4.428,4.642C11.734,21.03,11.62,21.034,11.484,21.034Zm9.355-8.975a1.789,1.789,0,0,0-1.586,2.617,1.691,1.691,0,0,1-.028-.3,1.613,1.613,0,1,1,3.226,0,1.661,1.661,0,0,1-.028.3,1.787,1.787,0,0,0-1.584-2.617ZM4.522,10.931h0A19.361,19.361,0,0,0,6.5,12.566a1.177,1.177,0,0,0,1.386,0,18.637,18.637,0,0,0,1.983-1.639Z" transform="translate(-0.001 0)" fill="#fff"/>
      </g>
    </g>
  </g>
</svg>
