<svg xmlns="http://www.w3.org/2000/svg" width="56.23" height="56.23" viewBox="0 0 56.23 56.23">
  <g id="Group_57017" data-name="Group 57017" transform="translate(721.699 3973)">
    <g id="Group_56777" data-name="Group 56777" transform="translate(-721.699 -3973)">
      <rect id="Rectangle_77" data-name="Rectangle 77" width="56.23" height="56.23" rx="5" fill="#67b6ff" opacity="0.15"/>
      <g id="Group_213" data-name="Group 213" transform="translate(16.898 14.511)">
        <g id="Group_208" data-name="Group 208">
          <path id="Path_464" data-name="Path 464" d="M1647.759,1835.887a1.362,1.362,0,0,1-1.365-1.364v-2.584a1.365,1.365,0,0,1,2.729,0v2.584A1.363,1.363,0,0,1,1647.759,1835.887Z" transform="translate(-1646.395 -1830.574)" fill="#67b6ff"/>
        </g>
        <g id="Group_209" data-name="Group 209" transform="translate(13.43)">
          <path id="Path_465" data-name="Path 465" d="M1657.6,1835.887a1.362,1.362,0,0,1-1.365-1.364v-2.584a1.365,1.365,0,0,1,2.73,0v2.584A1.364,1.364,0,0,1,1657.6,1835.887Z" transform="translate(-1656.238 -1830.574)" fill="#67b6ff"/>
        </g>
        <g id="Group_210" data-name="Group 210" transform="translate(0.463 3.047)">
          <path id="Path_466" data-name="Path 466" d="M1654.339,1841.313a7.614,7.614,0,0,1-7.6-7.6.9.9,0,0,1,1.8,0,5.813,5.813,0,0,0,11.626,0,.9.9,0,0,1,1.8,0A7.619,7.619,0,0,1,1654.339,1841.313Z" transform="translate(-1646.734 -1832.807)" fill="#67b6ff"/>
        </g>
        <g id="Group_211" data-name="Group 211" transform="translate(7.166 9.749)">
          <path id="Path_467" data-name="Path 467" d="M1657.594,1854.708a5.94,5.94,0,0,1-5.947-5.948v-10.14a.9.9,0,0,1,1.8,0v10.14a4.143,4.143,0,1,0,8.286,0v-1.731a.9.9,0,1,1,1.8,0v1.731A5.94,5.94,0,0,1,1657.594,1854.708Z" transform="translate(-1651.647 -1837.719)" fill="#67b6ff"/>
        </g>
        <g id="Group_212" data-name="Group 212" transform="translate(14.307 12.308)">
          <path id="Path_468" data-name="Path 468" d="M1660.731,1847.248a3.827,3.827,0,1,1,3.827-3.826A3.838,3.838,0,0,1,1660.731,1847.248Zm0-5.849a2.023,2.023,0,1,0,0,4.045,2.023,2.023,0,1,0,0-4.045Z" transform="translate(-1656.881 -1839.595)" fill="#67b6ff"/>
        </g>
      </g>
    </g>
  </g>
</svg>
