<svg xmlns="http://www.w3.org/2000/svg" width="45" height="45" viewBox="0 0 45 45">
  <g id="Group_57013" data-name="Group 57013" transform="translate(2842 -2466)">
    <rect id="Rectangle_105" data-name="Rectangle 105" width="45" height="45" rx="5" transform="translate(-2842 2466)" fill="#12c719"/>
    <path id="Vector" d="M15.7,19.6a8.244,8.244,0,0,1-3.85-1.313,25.033,25.033,0,0,1-6.047-4.523A22.948,22.948,0,0,1,1.265,7.72C-.347,4.788-.073,3.252.235,2.6a4.091,4.091,0,0,1,1.6-1.72A7.714,7.714,0,0,1,3.091.21L3.212.157a1.171,1.171,0,0,1,.96-.088,2.813,2.813,0,0,1,.913.7A15.169,15.169,0,0,1,7.367,4.157a3.375,3.375,0,0,1,.448,1.387,2.193,2.193,0,0,1-.558,1.3c-.057.078-.114.153-.169.226-.333.438-.406.564-.358.79a8.3,8.3,0,0,0,2.021,3,7.956,7.956,0,0,0,2.963,1.972c.235.05.364-.026.816-.371.065-.049.131-.1.2-.152a2.2,2.2,0,0,1,1.324-.592h0a3.17,3.17,0,0,1,1.394.489,16.714,16.714,0,0,1,3.375,2.266,2.812,2.812,0,0,1,.7.91,1.18,1.18,0,0,1-.088.963c-.016.036-.034.076-.053.12a7.722,7.722,0,0,1-.669,1.25A4.091,4.091,0,0,1,17,19.318,2.95,2.95,0,0,1,15.7,19.6Z" transform="translate(-2829 2479)" fill="#fff"/>
  </g>
</svg>
