<svg xmlns="http://www.w3.org/2000/svg" width="50" height="50" viewBox="0 0 50 50">
  <g id="Group_57034" data-name="Group 57034" transform="translate(2449 4721)">
    <g id="Group_56865" data-name="Group 56865" transform="translate(-2499 -5337)">
      <rect id="Rectangle_18270" data-name="Rectangle 18270" width="50" height="50" rx="10" transform="translate(50 616)" fill="#fff" opacity="0.05"/>
    </g>
    <g id="file" transform="translate(-2433 -4707)">
      <path id="Path_17336" data-name="Path 17336" d="M212.016,108.4h-.646v15.879a1.916,1.916,0,0,1-1.914,1.914H197.7v.589A1.222,1.222,0,0,0,198.921,128h13.093a1.222,1.222,0,0,0,1.221-1.221v-17.16A1.22,1.22,0,0,0,212.016,108.4Z" transform="translate(-195.142 -105.898)" fill="#fff"/>
      <path id="Path_17337" data-name="Path 17337" d="M94.665,19.6h6.546a1.222,1.222,0,0,0,1.221-1.221V1.221A1.222,1.222,0,0,0,101.212,0H92.488V.4A1.187,1.187,0,0,1,92.5.533V3.878a1.721,1.721,0,0,1-1.72,1.72H87.431c-.035,0-.072,0-.106,0H86.9V18.381A1.222,1.222,0,0,0,88.121,19.6h6.544Zm.247-4.15H90.644a.577.577,0,1,1,0-1.154h4.27a.577.577,0,1,1,0,1.154Zm4.27-2.945H90.644a.577.577,0,1,1,0-1.154h8.538a.577.577,0,0,1,0,1.154ZM90.644,8.225h8.538a.577.577,0,0,1,0,1.154H90.644a.577.577,0,1,1,0-1.154Z" transform="translate(-86.9)" fill="#fff"/>
      <path id="Path_17338" data-name="Path 17338" d="M88.062,5.687h3.354a1.025,1.025,0,0,0,1.016-1.016V1.315A.514.514,0,0,0,91.915.8a.5.5,0,0,0-.36.152L87.7,4.81A.514.514,0,0,0,88.062,5.687Z" transform="translate(-87.531 -0.782)" fill="#fff"/>
    </g>
  </g>
</svg>
