<svg xmlns="http://www.w3.org/2000/svg" width="50" height="50" viewBox="0 0 50 50">
  <g id="Group_57036" data-name="Group 57036" transform="translate(2449 4505)">
    <g id="Group_56867" data-name="Group 56867" transform="translate(-2499 -5337)">
      <rect id="Rectangle_18272" data-name="Rectangle 18272" width="50" height="50" rx="10" transform="translate(50 832)" fill="#fff" opacity="0.05"/>
      <path id="Path_53048" data-name="Path 53048" d="M77.227,849.183a6.324,6.324,0,0,1,1.747.786l.786-.786a1.108,1.108,0,0,1,1.572,0l1.485,1.485a1.107,1.107,0,0,1,0,1.572l-.786.786a6.864,6.864,0,0,1,.786,1.834h1.048A1.1,1.1,0,0,1,85,856v2.1a1.156,1.156,0,0,1-1.135,1.135H82.817a6.312,6.312,0,0,1-.786,1.747l.786.786a1.107,1.107,0,0,1,0,1.572l-1.485,1.485a1.108,1.108,0,0,1-1.572,0l-.786-.786a6.324,6.324,0,0,1-1.747.786v1.048A1.156,1.156,0,0,1,76.092,867H74a1.1,1.1,0,0,1-1.135-1.135v-1.048a6.866,6.866,0,0,1-1.834-.786l-.786.786a1.108,1.108,0,0,1-1.572,0l-1.485-1.485a1.107,1.107,0,0,1,0-1.572l.786-.786a6.312,6.312,0,0,1-.786-1.747H66.135A1.156,1.156,0,0,1,65,858.092V856a1.1,1.1,0,0,1,1.135-1.136h1.048a6.864,6.864,0,0,1,.786-1.834l-.786-.786a1.107,1.107,0,0,1,0-1.572l1.485-1.485a1.108,1.108,0,0,1,1.572,0l.786.786a6.866,6.866,0,0,1,1.834-.786v-1.048A1.1,1.1,0,0,1,74,847h2.1a1.156,1.156,0,0,1,1.135,1.135Zm-2.183,4.455a3.393,3.393,0,0,1,3.319,3.406,3.317,3.317,0,0,1-3.319,3.318,3.392,3.392,0,0,1-3.406-3.318A3.468,3.468,0,0,1,75.044,853.638Z" fill="#fff" fill-rule="evenodd"/>
    </g>
  </g>
</svg>
