<svg xmlns="http://www.w3.org/2000/svg" width="65" height="65" viewBox="0 0 65 65">
  <g id="Group_56999" data-name="Group 56999" transform="translate(-16.617 -17.063)">
    <rect id="Rectangle_105" data-name="Rectangle 105" width="65" height="65" rx="5" transform="translate(16.617 17.063)" fill="#12c719"/>
    <path id="Vector" d="M22.22,27.736c-1.209,0-2.906-.437-5.448-1.857a35.423,35.423,0,0,1-8.557-6.4,32.471,32.471,0,0,1-6.426-8.554C-.491,6.776-.1,4.6.332,3.672A5.789,5.789,0,0,1,2.6,1.238,10.915,10.915,0,0,1,4.374.3L4.545.222A1.657,1.657,0,0,1,5.9.1,3.981,3.981,0,0,1,7.2,1.088a21.464,21.464,0,0,1,3.229,4.794,4.776,4.776,0,0,1,.633,1.963,3.1,3.1,0,0,1-.789,1.846c-.081.111-.162.217-.24.319-.471.619-.575.8-.506,1.117a11.744,11.744,0,0,0,2.86,4.242,11.258,11.258,0,0,0,4.193,2.79c.333.071.516-.037,1.155-.524.092-.07.186-.142.284-.215a3.119,3.119,0,0,1,1.873-.838h0a4.486,4.486,0,0,1,1.972.692,23.65,23.65,0,0,1,4.776,3.206,3.979,3.979,0,0,1,.994,1.288,1.67,1.67,0,0,1-.124,1.362c-.023.051-.048.108-.075.17a10.926,10.926,0,0,1-.947,1.769,5.79,5.79,0,0,1-2.438,2.265A4.174,4.174,0,0,1,22.22,27.736Z" transform="translate(35.095 34.967)" fill="#fff"/>
  </g>
</svg>
