<svg xmlns="http://www.w3.org/2000/svg" xmlns:xlink="http://www.w3.org/1999/xlink" width="78" height="78" viewBox="0 0 78 78">
  <defs>
    <filter id="Frame_Copy" x="0" y="0" width="78" height="78" filterUnits="userSpaceOnUse">
      <feOffset dy="3" input="SourceAlpha"/>
      <feGaussianBlur stdDeviation="8.5" result="blur"/>
      <feFlood flood-color="#e2e2e2" flood-opacity="0.502"/>
      <feComposite operator="in" in2="blur"/>
      <feComposite in="SourceGraphic"/>
    </filter>
  </defs>
  <g id="Group_57007" data-name="Group 57007" transform="translate(1025.5 4631.5)">
    <g id="Group_57005" data-name="Group 57005">
      <g transform="matrix(1, 0, 0, 1, -1025.5, -4631.5)" filter="url(#Frame_Copy)">
        <rect id="Frame_Copy-2" data-name="Frame Copy" width="27" height="27" rx="13.5" transform="translate(25.5 22.5)" fill="#fff"/>
      </g>
      <g id="Group_56443" data-name="Group 56443" transform="translate(6406.22 -18277.205)">
        <g id="Group_56441" data-name="Group 56441">
          <path id="Path_17082" data-name="Path 17082" d="M83.709,37.99a9.138,9.138,0,0,0-12.928,0,.536.536,0,0,0,0,.758L72.4,40.371a.536.536,0,0,0,.758,0,5.772,5.772,0,0,1,8.167,0,.536.536,0,0,0,.758,0l1.623-1.623A.536.536,0,0,0,83.709,37.99Z" transform="translate(-7469.921 13638.395)" fill="#ffe600"/>
          <path id="Path_17083" data-name="Path 17083" d="M262.464,37.99A9.083,9.083,0,0,0,256,35.311v3.367a5.737,5.737,0,0,1,4.084,1.693.536.536,0,0,0,.758,0l1.623-1.623A.536.536,0,0,0,262.464,37.99Z" transform="translate(-7648.678 13638.395)" fill="#ffaa32"/>
          <path id="Path_17084" data-name="Path 17084" d="M5.06,120.873a5.772,5.772,0,0,1,0-8.167l-2.38-2.381a9.138,9.138,0,0,0,0,12.928.536.536,0,0,0,.758,0L5.06,121.63A.536.536,0,0,0,5.06,120.873Z" transform="translate(-7401.82 13566.06)" fill="#9bff00"/>
          <path id="Path_17085" data-name="Path 17085" d="M366.1,120.873a5.772,5.772,0,0,0,0-8.167l2.38-2.381a9.138,9.138,0,0,1,0,12.928.536.536,0,0,1-.758,0L366.1,121.63A.536.536,0,0,1,366.1,120.873Z" transform="translate(-7754.695 13566.06)" fill="#ff1e5a"/>
          <path id="Path_17086" data-name="Path 17086" d="M3.367,116.788a5.738,5.738,0,0,1,1.693-4.082l-2.38-2.381A9.082,9.082,0,0,0,0,116.789Z" transform="translate(-7401.82 13566.06)" fill="#00d200"/>
          <path id="Path_17087" data-name="Path 17087" d="M366.1,295.364a5.744,5.744,0,0,0,1.693-4.085h3.367a9.082,9.082,0,0,1-2.679,6.464.536.536,0,0,1-.758,0l-1.623-1.623A.536.536,0,0,1,366.1,295.364Z" transform="translate(-7754.695 13391.568)" fill="#c40050"/>
          <path id="Path_17088" data-name="Path 17088" d="M209.383,244.686a1.685,1.685,0,0,0,0,2.381,61.524,61.524,0,0,0,5.366,3.725.536.536,0,0,0,.74-.74,61.522,61.522,0,0,0-3.725-5.366A1.685,1.685,0,0,0,209.383,244.686Z" transform="translate(-7603.25 13436.972)" fill="#003c50"/>
        </g>
        <path id="Path_17089" data-name="Path 17089" d="M222.673,244.686l6.033,6.033a.536.536,0,0,0,.073-.666,61.518,61.518,0,0,0-3.725-5.366A1.685,1.685,0,0,0,222.673,244.686Z" transform="translate(-7616.541 13436.972)" fill="#001428"/>
      </g>
    </g>
  </g>
</svg>
