<svg xmlns="http://www.w3.org/2000/svg" width="20" height="23" viewBox="0 0 20 23">
  <g id="Group_57039" data-name="Group 57039" transform="translate(0.5 0.5)">
    <path id="Path" d="M18.049,15.4a1.434,1.434,0,0,1-1.425-1.444V9.276A7.636,7.636,0,0,0,10.45,1.514V.962a.95.95,0,1,0-1.9,0v.552A7.636,7.636,0,0,0,2.375,9.276v4.68A1.434,1.434,0,0,1,.95,15.4a.963.963,0,0,0,0,1.925h17.1a.963.963,0,0,0,0-1.925Z" fill="#fff" stroke="rgba(0,0,0,0)" stroke-miterlimit="10" stroke-width="1"/>
    <path id="Path-2" data-name="Path" d="M5.142,0H.287A.273.273,0,0,0,.017.244,2.584,2.584,0,0,0,0,.55,2.732,2.732,0,0,0,2.714,3.3,2.732,2.732,0,0,0,5.428.55,2.584,2.584,0,0,0,5.411.244.271.271,0,0,0,5.142,0Z" transform="translate(6.785 18.7)" fill="#fff" stroke="rgba(0,0,0,0)" stroke-miterlimit="10" stroke-width="1"/>
  </g>
</svg>
