<svg xmlns="http://www.w3.org/2000/svg" width="56.23" height="56.23" viewBox="0 0 56.23 56.23">
  <g id="Group_57019" data-name="Group 57019" transform="translate(722 3803)">
    <g id="Group_56784" data-name="Group 56784" transform="translate(-4928 -5449)">
      <rect id="Rectangle_77" data-name="Rectangle 77" width="56.23" height="56.23" rx="5" transform="translate(4206 1646)" fill="#f99106" opacity="0.15"/>
      <g id="Group_56783" data-name="Group 56783" transform="translate(4223 1662)">
        <g id="Group_264" data-name="Group 264" transform="translate(4.839)">
          <path id="Path_493" data-name="Path 493" d="M1656.864,2446.586a6.79,6.79,0,1,1,6.791-6.789A6.8,6.8,0,0,1,1656.864,2446.586Zm0-11.6a4.812,4.812,0,1,0,4.813,4.812A4.826,4.826,0,0,0,1656.864,2434.985Z" transform="translate(-1650.075 -2433.007)" fill="#f99106"/>
        </g>
        <g id="Group_265" data-name="Group 265" transform="translate(0 15.826)">
          <path id="Path_494" data-name="Path 494" d="M1669.136,2452.751a.969.969,0,0,1-.989-.989v-2.806a3.4,3.4,0,0,0-3.4-3.4h-12.537a3.4,3.4,0,0,0-3.4,3.4v2.806a.989.989,0,0,1-1.979,0v-2.806a5.374,5.374,0,0,1,5.374-5.374h12.537a5.374,5.374,0,0,1,5.373,5.374v2.806A.97.97,0,0,1,1669.136,2452.751Z" transform="translate(-1646.841 -2443.583)" fill="#f99106"/>
        </g>
      </g>
    </g>
  </g>
</svg>
