<svg xmlns="http://www.w3.org/2000/svg" width="46" height="47" viewBox="0 0 46 47">
  <g id="Group_5741" data-name="Group 5741" transform="translate(-2540 -12435)">
    <g id="Group_5741" data-name="Group 5741" transform="translate(2540 12435)">
      <rect id="Rectangle_105" data-name="Rectangle 105" width="46" height="47" rx="5" fill="#504384" opacity="0.18"/>
    </g>
    <g id="Group_56729" data-name="Group 56729" transform="translate(2551 12447)">
      <g id="Group_55702" data-name="Group 55702" transform="translate(0)">
        <path id="Path_17339" data-name="Path 17339" d="M22.366,19.636H18.548a4.363,4.363,0,1,1,0-8.727h3.818a.545.545,0,0,0,.545-.545V8.727A2.177,2.177,0,0,0,20.9,6.563L17.77,1.092a2.159,2.159,0,0,0-2.962-.8L4.071,6.546H2.185A2.184,2.184,0,0,0,0,8.727v13.09A2.184,2.184,0,0,0,2.185,24H20.729a2.184,2.184,0,0,0,2.182-2.182V20.181A.545.545,0,0,0,22.366,19.636ZM18.447,4.47l1.188,2.076H14.881ZM6.239,6.546l9.119-5.309a1.055,1.055,0,0,1,.81-.109,1.069,1.069,0,0,1,.655.507v0L8.392,6.546Z" transform="translate(-0.003 0)" fill="#423869"/>
        <path id="Path_17340" data-name="Path 17340" d="M305.761,234.674h-3.818a3.273,3.273,0,0,0,0,6.545h3.818a1.638,1.638,0,0,0,1.636-1.636V236.31A1.638,1.638,0,0,0,305.761,234.674Zm-3.818,4.363a1.091,1.091,0,1,1,1.091-1.091A1.092,1.092,0,0,1,301.943,239.037Z" transform="translate(-283.398 -222.674)" fill="#423869"/>
      </g>
    </g>
  </g>
</svg>
