<svg xmlns="http://www.w3.org/2000/svg" width="62" height="62" viewBox="0 0 62 62">
  <g id="medicine" transform="translate(1599 -4449)">
    <g id="Group_56516" data-name="Group 56516" transform="translate(-1802 4132)">
      <rect id="Rectangle_105" data-name="Rectangle 105" width="62" height="62" rx="5" transform="translate(203 317)" fill="#a7b437" opacity="0.18"/>
      <g id="prescription_2_" data-name="prescription (2)" transform="translate(218 332)">
        <g id="Group_55900" data-name="Group 55900" transform="translate(9.912 7.363)">
          <g id="Group_55899" data-name="Group 55899">
            <path id="Path_17533" data-name="Path 17533" d="M160.721,117.8h-1.695V116.1a.638.638,0,1,0-1.275,0V117.8h-1.695a.638.638,0,1,0,0,1.275h1.695v1.695a.638.638,0,1,0,1.275,0v-1.695h1.695a.638.638,0,1,0,0-1.275Z" transform="translate(-155.418 -115.466)" fill="#a7b437" stroke="#a7b437" stroke-width="0.7"/>
          </g>
        </g>
        <g id="Group_55902" data-name="Group 55902" transform="translate(7.27 4.721)">
          <g id="Group_55901" data-name="Group 55901">
            <path id="Path_17534" data-name="Path 17534" d="M119.6,74.042a5.612,5.612,0,1,0,5.612,5.612A5.619,5.619,0,0,0,119.6,74.042Zm0,9.949a4.337,4.337,0,1,1,4.337-4.337A4.342,4.342,0,0,1,119.6,83.991Z" transform="translate(-113.992 -74.042)" fill="#a7b437" stroke="#a7b437" stroke-width="0.7"/>
          </g>
        </g>
        <g id="Group_55904" data-name="Group 55904" transform="translate(0 0)">
          <g id="Group_55903" data-name="Group 55903" transform="translate(0 0)">
            <path id="Path_17535" data-name="Path 17535" d="M25.578,5.878,19.9.2a.638.638,0,0,0-.451-.187H1.913A1.915,1.915,0,0,0,0,1.928V30.754a1.915,1.915,0,0,0,1.913,1.913H14.1a.638.638,0,1,0,0-1.275H1.913a.638.638,0,0,1-.638-.638V1.928a.638.638,0,0,1,.638-.638h16.9V5.053a1.915,1.915,0,0,0,1.913,1.913h3.763V18.318a.638.638,0,0,0,1.275,0V6.329A.637.637,0,0,0,25.578,5.878Zm-4.851-.187a.638.638,0,0,1-.638-.638V2.192l3.5,3.5H20.727Z" transform="translate(0 -0.015)" fill="#a7b437" stroke="#a7b437" stroke-width="0.7"/>
          </g>
        </g>
        <g id="Group_55906" data-name="Group 55906" transform="translate(9.332 17.857)">
          <g id="Group_55905" data-name="Group 55905">
            <path id="Path_17536" data-name="Path 17536" d="M158.037,280H146.962a.638.638,0,0,0,0,1.275h11.075a.638.638,0,1,0,0-1.275Z" transform="translate(-146.324 -279.998)" fill="#a7b437" stroke="#a7b437" stroke-width="0.7"/>
          </g>
        </g>
        <g id="Group_55908" data-name="Group 55908" transform="translate(4.082 17.857)">
          <g id="Group_55907" data-name="Group 55907">
            <path id="Path_17537" data-name="Path 17537" d="M66.712,280H64.634a.638.638,0,1,0,0,1.275h2.078a.638.638,0,1,0,0-1.275Z" transform="translate(-63.996 -279.998)" fill="#a7b437" stroke="#a7b437" stroke-width="0.7"/>
          </g>
        </g>
        <g id="Group_55910" data-name="Group 55910" transform="translate(9.332 21.428)">
          <g id="Group_55909" data-name="Group 55909">
            <path id="Path_17538" data-name="Path 17538" d="M153.318,335.994h-6.356a.638.638,0,0,0,0,1.275h6.356a.638.638,0,0,0,0-1.275Z" transform="translate(-146.324 -335.994)" fill="#a7b437" stroke="#a7b437" stroke-width="0.7"/>
          </g>
        </g>
        <g id="Group_55912" data-name="Group 55912" transform="translate(4.082 21.428)">
          <g id="Group_55911" data-name="Group 55911">
            <path id="Path_17539" data-name="Path 17539" d="M66.712,335.994H64.634a.638.638,0,1,0,0,1.275h2.078a.638.638,0,1,0,0-1.275Z" transform="translate(-63.996 -335.994)" fill="#a7b437" stroke="#a7b437" stroke-width="0.7"/>
          </g>
        </g>
        <g id="Group_55914" data-name="Group 55914" transform="translate(9.332 25)">
          <g id="Group_55913" data-name="Group 55913">
            <path id="Path_17540" data-name="Path 17540" d="M147.409,392.178a.637.637,0,1,0,.187.451A.641.641,0,0,0,147.409,392.178Z" transform="translate(-146.32 -391.991)" fill="#a7b437" stroke="#a7b437" stroke-width="0.7"/>
          </g>
        </g>
        <g id="Group_55916" data-name="Group 55916" transform="translate(4.082 25)">
          <g id="Group_55915" data-name="Group 55915">
            <path id="Path_17541" data-name="Path 17541" d="M66.712,391.991H64.634a.638.638,0,0,0,0,1.275h2.078a.638.638,0,1,0,0-1.275Z" transform="translate(-63.996 -391.991)" fill="#a7b437" stroke="#a7b437" stroke-width="0.7"/>
          </g>
        </g>
        <g id="Group_55918" data-name="Group 55918" transform="translate(15.358 19.694)">
          <g id="Group_55917" data-name="Group 55917">
            <path id="Path_17542" data-name="Path 17542" d="M254.144,313.851a3.954,3.954,0,0,0-.551.039,3.954,3.954,0,0,0-6.582-3.932l-5.051,5.051a3.954,3.954,0,0,0,5.592,5.592l2.642-2.642a3.954,3.954,0,1,0,3.95-4.108ZM246.65,319.7a2.678,2.678,0,1,1-3.788-3.788l2.074-2.074,3.788,3.788Zm2.976-2.976-3.788-3.788,2.074-2.074a2.678,2.678,0,0,1,3.788,3.788Zm3.881,3.684a2.678,2.678,0,0,1,0-5.2Zm1.275,0v-5.2a2.678,2.678,0,0,1,0,5.2Z" transform="translate(-240.802 -308.801)" fill="#a7b437" stroke="#a7b437" stroke-width="0.7"/>
          </g>
        </g>
      </g>
    </g>
  </g>
</svg>
