<svg id="pqaynow" xmlns="http://www.w3.org/2000/svg" width="23.171" height="22.905" viewBox="0 0 23.171 22.905">
  <path id="Vector" d="M7.248,7.075c.483-.483.969-.957,1.456-1.431A6.942,6.942,0,0,1,5.919,3.366,6.942,6.942,0,0,1,4.649,0L.242,1.914a.405.405,0,0,0-.053.714Z" transform="translate(0 7.871)" fill="#fff"/>
  <path id="Vector-2" data-name="Vector" d="M17.64.118a.405.405,0,0,0-.446-.085l-5.964,2.6a6.893,6.893,0,0,1,1.306,2.185c1.083-.969,2.169-1.934,3.28-2.871-1.131,1.269-2.3,2.5-3.467,3.734l-.3.32a5.851,5.851,0,0,0-.158-.6,6.082,6.082,0,1,0-6.994,7.781Q3.627,14.4,2.346,15.619l.089,3.357a.405.405,0,0,0,.28.373.454.454,0,0,0,.126.032.405.405,0,0,0,.32-.158L4.2,17.866,7.56,22.731a.405.405,0,0,0,.332.174h.045a.405.405,0,0,0,.328-.243L17.729.568a.405.405,0,0,0-.089-.45ZM7.909,6.407H7.1V6A.405.405,0,0,0,6.692,5.6H5.476A.405.405,0,0,0,5.071,6v.405a.405.405,0,0,0,.405.405H6.692A1.216,1.216,0,0,1,7.909,8.029v.405A1.216,1.216,0,0,1,6.692,9.651h-.3v.576H5.577V9.651h-.1A1.216,1.216,0,0,1,4.26,8.434V8.029h.811v.405a.405.405,0,0,0,.405.405H6.692A.405.405,0,0,0,7.1,8.434V8.029a.405.405,0,0,0-.405-.405H5.476A1.216,1.216,0,0,1,4.26,6.407V6A1.216,1.216,0,0,1,5.476,4.785h.235V4.177h.811v.608h.17A1.216,1.216,0,0,1,7.909,6Zm2.1,1.683a3.856,3.856,0,0,0,.1-.872V7.035a4.018,4.018,0,1,0-4.46,4.176,3.763,3.763,0,0,0,.43.024,4.055,4.055,0,0,0,.9-.1c-.308.308-.62.608-.924.912a4.691,4.691,0,0,1-1.127-.138,4.829,4.829,0,1,1,5.92-5.547,4.716,4.716,0,0,1,.077.811C10.613,7.473,10.309,7.777,10.005,8.09Z" transform="translate(5.409 0)" fill="#fff"/>
</svg>
