<svg xmlns="http://www.w3.org/2000/svg" width="62" height="62" viewBox="0 0 62 62">
  <g id="Group_56121" data-name="Group 56121" transform="translate(2971 -2962)">
    <rect id="Rectangle_105" data-name="Rectangle 105" width="62" height="62" rx="5" transform="translate(-2971 2962)" fill="#504384"/>
    <g id="Group_56120" data-name="Group 56120" transform="translate(98 -13)">
      <g id="Group_56119" data-name="Group 56119" transform="translate(-3058 2982)">
        <path id="Vector" d="M5.409-1H23.721a1.831,1.831,0,0,1,1.268.51L38.723,12.695a1.831,1.831,0,0,1,.563,1.321V40.385a6.177,6.177,0,0,1-1.9,4.429,6.469,6.469,0,0,1-4.505,1.8H5.409A6.469,6.469,0,0,1,.9,44.814,6.177,6.177,0,0,1-1,40.385V5.226A6.177,6.177,0,0,1,.9.8,6.469,6.469,0,0,1,5.409-1ZM22.985,2.662H5.409a2.862,2.862,0,0,0-1.969.777,2.464,2.464,0,0,0-.778,1.787V40.385a2.464,2.464,0,0,0,.778,1.787,2.862,2.862,0,0,0,1.969.777H32.877a2.862,2.862,0,0,0,1.969-.777,2.464,2.464,0,0,0,.778-1.787V14.8Z" transform="translate(1 1)" fill="#fff"/>
        <path id="Vector-2" data-name="Vector" d="M14.565,15.847H.831A1.831,1.831,0,0,1-1,14.016V.831a1.831,1.831,0,1,1,3.662,0V12.185h11.9a1.831,1.831,0,1,1,0,3.662Z" transform="translate(23.89 1)" fill="#fff"/>
        <path id="Vector-3" data-name="Vector" d="M19.143,2.662H.831A1.831,1.831,0,1,1,.831-1H19.143a1.831,1.831,0,1,1,0,3.662Z" transform="translate(10.156 25.172)" fill="#fff"/>
        <path id="Vector-4" data-name="Vector" d="M19.143,2.662H.831A1.831,1.831,0,1,1,.831-1H19.143a1.831,1.831,0,1,1,0,3.662Z" transform="translate(10.156 33.962)" fill="#fff"/>
        <path id="Vector-5" data-name="Vector" d="M5.409,2.662H.831A1.831,1.831,0,1,1,.831-1H5.409a1.831,1.831,0,1,1,0,3.662Z" transform="translate(10.156 16.382)" fill="#fff"/>
      </g>
    </g>
  </g>
</svg>
