<svg xmlns="http://www.w3.org/2000/svg" width="110" height="67" viewBox="0 0 110 67">
  <g id="visa" transform="translate(-7759 -11916)">
    <path id="Rectangle_36" data-name="Rectangle 36" d="M0,0H105a5,5,0,0,1,5,5V67a0,0,0,0,1,0,0H5a5,5,0,0,1-5-5V0A0,0,0,0,1,0,0Z" transform="translate(7759 11916)" fill="#0066b2"/>
    <g id="Group_2" data-name="Group 2" transform="translate(7788.716 11941.275)">
      <path id="Path_7" data-name="Path 7" d="M782.471,736.754h-4.087l2.554-15.7h4.087Z" transform="translate(-760.759 -720.776)" fill="#fff"/>
      <path id="Path_8" data-name="Path 8" d="M720.125,721.057l-3.9,10.8-.461-2.325h0l-1.375-7.059a1.749,1.749,0,0,0-1.939-1.414h-6.441l-.075.266a15.254,15.254,0,0,1,4.275,1.795l3.55,13.637h4.258l6.5-15.7Z" transform="translate(-705.938 -720.776)" fill="#fff"/>
      <path id="Path_9" data-name="Path 9" d="M862.831,736.755h3.752l-3.272-15.7h-3.286a1.878,1.878,0,0,0-1.887,1.17l-6.095,14.528h4.26l.852-2.331h5.2Zm-4.5-5.553,2.148-5.874,1.208,5.874Z" transform="translate(-816.498 -720.776)" fill="#fff"/>
      <path id="Path_10" data-name="Path 10" d="M817.167,723.958l.583-3.372a11.8,11.8,0,0,0-3.676-.684c-2.028,0-6.844.887-6.844,5.2,0,4.056,5.653,4.106,5.653,6.236s-5.07,1.749-6.743.405l-.608,3.524a11.446,11.446,0,0,0,4.613.887c2.789,0,7-1.445,7-5.374,0-4.081-5.7-4.461-5.7-6.235S815.419,722.994,817.167,723.958Z" transform="translate(-781.302 -719.902)" fill="#fff"/>
    </g>
    <path id="Path_11" data-name="Path 11" d="M715.768,729.53l-1.375-7.059a1.749,1.749,0,0,0-1.939-1.414h-6.441l-.075.266A15.833,15.833,0,0,1,712,724.368,12.241,12.241,0,0,1,715.768,729.53Z" transform="translate(7082.778 11220.498)" fill="#f9a533"/>
  </g>
</svg>
