<svg xmlns="http://www.w3.org/2000/svg" width="25.685" height="25.685" viewBox="0 0 25.685 25.685">
  <g id="Group_57033" data-name="Group 57033" transform="translate(7688 -6383)">
    <g id="Attach" transform="translate(-7688 6383)">
      <g id="Group_23" data-name="Group 23" transform="translate(0 0)">
        <circle id="Ellipse_1003" data-name="Ellipse 1003" cx="12.842" cy="12.842" r="12.842" fill="#fff"/>
        <path id="Icon_metro-attachment" data-name="Icon metro-attachment" d="M10.119,5.325l-.675-.674L6.07,8.024a1.431,1.431,0,0,0,2.024,2.024L12.144,6A2.385,2.385,0,0,0,8.77,2.627L4.519,6.877l-.009.009a3.327,3.327,0,0,0,4.706,4.7l.009-.009h0l2.9-2.9-.675-.674-2.9,2.9-.009.009A2.373,2.373,0,0,1,5.184,7.561l.009-.009h0L9.444,3.3a1.431,1.431,0,0,1,2.024,2.024L7.42,9.374A.477.477,0,0,1,6.745,8.7l3.374-3.374Z" transform="translate(4.526 5.596)" fill="#5e5e5e"/>
      </g>
    </g>
  </g>
</svg>
