<svg xmlns="http://www.w3.org/2000/svg" width="48.321" height="48.32" viewBox="0 0 48.321 48.32">
  <g id="Group_57049" data-name="Group 57049" transform="translate(-783 -729)">
    <ellipse id="Ellipse_1003" data-name="Ellipse 1003" cx="24.16" cy="24.16" rx="24.16" ry="24.16" transform="translate(783 729)" fill="#eaebec"/>
    <g id="eraser" transform="translate(797 744)">
      <g id="Group_51744" data-name="Group 51744" transform="translate(3.199 7.097)">
        <g id="Group_51743" data-name="Group 51743" transform="translate(0 0)">
          <path id="Path_17233" data-name="Path 17233" d="M85,213.271l-2.7,2.7a2.09,2.09,0,0,0,0,2.955l2.507,2.507a2.076,2.076,0,0,0,1.477.612h1.958a2.075,2.075,0,0,0,1.477-.612l1.722-1.722Z" transform="translate(-81.685 -213.271)" fill="#5e5e5e"/>
        </g>
      </g>
      <g id="Group_51746" data-name="Group 51746" transform="translate(7.102 0)">
        <g id="Group_51745" data-name="Group 51745">
          <path id="Path_17234" data-name="Path 17234" d="M194.162,38.032l-5.849-5.849a.429.429,0,0,0-.591,0l-6.39,6.389,6.44,6.44,6.389-6.389A.417.417,0,0,0,194.162,38.032Z" transform="translate(-181.333 -32.065)" fill="#5e5e5e"/>
        </g>
      </g>
      <g id="Group_51748" data-name="Group 51748" transform="translate(0 15.035)">
        <g id="Group_51747" data-name="Group 51747" transform="translate(0 0)">
          <path id="Path_17235" data-name="Path 17235" d="M4.6,415.937H.418a.418.418,0,0,0,0,.836H4.6a.418.418,0,1,0,0-.836Z" transform="translate(0 -415.937)" fill="#5e5e5e"/>
        </g>
      </g>
      <g id="Group_51750" data-name="Group 51750" transform="translate(4.178 16.706)">
        <g id="Group_51749" data-name="Group 51749" transform="translate(0 0)">
          <path id="Path_17236" data-name="Path 17236" d="M114.6,458.6h-7.52a.418.418,0,1,0,0,.836h7.52a.418.418,0,1,0,0-.836Z" transform="translate(-106.666 -458.604)" fill="#5e5e5e"/>
        </g>
      </g>
    </g>
  </g>
</svg>
