<svg xmlns="http://www.w3.org/2000/svg" width="25.685" height="25.685" viewBox="0 0 25.685 25.685">
  <g id="Group_57036" data-name="Group 57036" transform="translate(7688 -6290)">
    <circle id="Ellipse_1472" data-name="Ellipse 1472" cx="12.842" cy="12.842" r="12.842" transform="translate(-7688 6290)" fill="#fff"/>
    <g id="share" transform="translate(-7683 6275.667)">
      <g id="Group_55920" data-name="Group 55920" transform="translate(0 21.333)">
        <g id="Group_55919" data-name="Group 55919" transform="translate(0 0)">
          <path id="Path_17543" data-name="Path 17543" d="M154.443,87.888a1.282,1.282,0,1,0-1.248-1.01l-1.626.813a1.277,1.277,0,1,0,0,1.672l1.626.813a1.3,1.3,0,1,0,.29-.569l-1.626-.813a1.242,1.242,0,0,0,0-.534l1.626-.813A1.269,1.269,0,0,0,154.443,87.888Z" transform="translate(-144.862 -83.417)" fill="#5e5e5e"/>
          <path id="Path_17544" data-name="Path 17544" d="M14.051,21.333H1.277A1.279,1.279,0,0,0,0,22.61v8.942A1.279,1.279,0,0,0,1.277,32.83H14.051a1.279,1.279,0,0,0,1.277-1.277V22.61A1.279,1.279,0,0,0,14.051,21.333ZM7.664,32.193a.641.641,0,1,1,.641-.641A.642.642,0,0,1,7.664,32.193ZM1.277,30.275V22.61H14.051v7.664Z" transform="translate(0 -21.333)" fill="#5e5e5e"/>
        </g>
      </g>
    </g>
  </g>
</svg>
