<svg xmlns="http://www.w3.org/2000/svg" width="48.321" height="48.32" viewBox="0 0 48.321 48.32">
  <g id="Group_57048" data-name="Group 57048" transform="translate(-0.048 -0.49)">
    <g id="Group_56568" data-name="Group 56568">
      <ellipse id="Ellipse_1003" data-name="Ellipse 1003" cx="24.16" cy="24.16" rx="24.16" ry="24.16" transform="translate(0.048 0.49)" fill="#423869"/>
      <g id="pen-filled-diagonal-writing-tool" transform="translate(15.048 14.49)">
        <path id="Path_17231" data-name="Path 17231" d="M8.471,283.844l3.766-1.235a.9.9,0,0,0,.364-.224l8.827-8.878-3.516-3.518-8.8,8.855a.935.935,0,0,0-.238.423l-1.011,4.007A.48.48,0,0,0,8.471,283.844Z" transform="translate(-7.844 -264.443)" fill="#fff"/>
        <path id="Path_17232" data-name="Path 17232" d="M533.736,2.106,531.957.326A1.324,1.324,0,0,0,530.235.31L525.9,4.674l3.518,3.518,1.366-1.375.666.67a.414.414,0,0,1,0,.581l-1.079,1.077-.873.871-3.655,3.645A.822.822,0,1,0,527,14.824l5.607-5.595a2.055,2.055,0,0,0,0-2.9l-.672-.676,1.812-1.822A1.321,1.321,0,0,0,533.736,2.106Z" transform="translate(-514.959 0)" fill="#fff"/>
      </g>
    </g>
  </g>
</svg>
