<svg xmlns="http://www.w3.org/2000/svg" width="25.68" height="25.68" viewBox="0 0 25.68 25.68">
  <g id="Group_57032" data-name="Group 57032" transform="translate(7688 -6415)">
    <g id="recording" transform="translate(-7688 6415)">
      <path id="Path_17227" data-name="Path 17227" d="M12.84,25.68A12.84,12.84,0,1,1,25.68,12.84,12.89,12.89,0,0,1,12.84,25.68Zm0,0" fill="#fff"/>
      <path id="Path_17229" data-name="Path 17229" d="M156.785,151a5.785,5.785,0,1,0,5.785,5.785A5.792,5.792,0,0,0,156.785,151Zm0,0" transform="translate(-143.945 -143.945)" fill="#e30000"/>
      <path id="Path_17230" data-name="Path 17230" d="M261.785,156.785A5.792,5.792,0,0,0,256,151v11.57A5.792,5.792,0,0,0,261.785,156.785Zm0,0" transform="translate(-243.486 -143.945)" fill="#d20000"/>
    </g>
  </g>
</svg>
