<svg xmlns="http://www.w3.org/2000/svg" width="64" height="36" viewBox="0 0 64 36">
  <g id="Group_57044" data-name="Group 57044" transform="translate(-1205 -737)">
    <path id="Path_54128" data-name="Path 54128" d="M18,0H46a18,18,0,0,1,0,36H18A18,18,0,0,1,18,0Z" transform="translate(1205 737)" fill="#2bc184"/>
    <g id="add-user" transform="translate(1227 745)">
      <g id="Group_56588" data-name="Group 56588" transform="translate(0)">
        <g id="Group_56587" data-name="Group 56587">
          <path id="Path_54129" data-name="Path 54129" d="M14.359,10.036a10.164,10.164,0,0,0-1.176-.472,5.312,5.312,0,1,0-6.361,0A10.161,10.161,0,0,0,.051,17.138,2.373,2.373,0,0,0,2.371,20h9.621a.781.781,0,0,0,0-1.562H2.371a.794.794,0,0,1-.625-.3.816.816,0,0,1-.165-.684,8.632,8.632,0,0,1,8.212-6.835q.1,0,.207,0t.209,0a8.51,8.51,0,0,1,3.478.826.781.781,0,0,0,.671-1.411Zm-4.168-.978-.191,0-.189,0a3.75,3.75,0,1,1,.38,0Z" transform="translate(0)" fill="#fff"/>
        </g>
      </g>
      <g id="Group_56590" data-name="Group 56590" transform="translate(12.578 12.578)">
        <g id="Group_56589" data-name="Group 56589">
          <path id="Path_54130" data-name="Path 54130" d="M328.641,324.93h-2.148v-2.148a.781.781,0,0,0-1.562,0v2.148h-2.148a.781.781,0,0,0,0,1.563h2.148v2.148a.781.781,0,0,0,1.563,0v-2.148h2.148a.781.781,0,0,0,0-1.562Z" transform="translate(-322 -322)" fill="#fff"/>
        </g>
      </g>
    </g>
  </g>
</svg>
