<svg xmlns="http://www.w3.org/2000/svg" width="203" height="183.836" viewBox="0 0 203 183.836">
  <g id="Group_57041" data-name="Group 57041" transform="translate(-86 -256.164)">
    <text id="VCARE" transform="translate(86 425)" fill="#ff5499" font-size="56" font-family="NasalizationRg-Regular, Nasalization"><tspan x="0" y="0">V</tspan><tspan y="0" fill="#fff">CARE</tspan></text>
    <g id="sound" transform="translate(143 256.164)">
      <g id="Group_51703" data-name="Group 51703">
        <path id="Path_17208" data-name="Path 17208" d="M2.039,195.131A2.04,2.04,0,0,1,0,193.092V172.7a2.039,2.039,0,1,1,4.078,0v20.388A2.04,2.04,0,0,1,2.039,195.131Z" transform="translate(0 -138.046)" fill="#fff"/>
        <path id="Path_17209" data-name="Path 17209" d="M66.039,142.418A2.04,2.04,0,0,1,64,140.379V87.372a2.039,2.039,0,1,1,4.077,0v53.007A2.039,2.039,0,0,1,66.039,142.418Z" transform="translate(-51.768 -69.023)" fill="#fff"/>
        <path id="Path_17210" data-name="Path 17210" d="M130.039,89.7A2.04,2.04,0,0,1,128,87.666V2.039a2.039,2.039,0,0,1,4.078,0V87.666A2.04,2.04,0,0,1,130.039,89.7Z" transform="translate(-103.535)" fill="#fff"/>
        <path id="Path_17211" data-name="Path 17211" d="M194.039,102.883A2.04,2.04,0,0,1,192,100.844V23.372a2.039,2.039,0,1,1,4.077,0v77.472A2.039,2.039,0,0,1,194.039,102.883Z" transform="translate(-155.303 -17.256)" fill="#fff"/>
        <path id="Path_17212" data-name="Path 17212" d="M258.039,155.6A2.04,2.04,0,0,1,256,153.557V108.7a2.039,2.039,0,0,1,4.078,0v44.853A2.04,2.04,0,0,1,258.039,155.6Z" transform="translate(-207.07 -86.279)" fill="#fff"/>
        <path id="Path_17213" data-name="Path 17213" d="M322.039,102.883A2.04,2.04,0,0,1,320,100.844V23.372a2.039,2.039,0,1,1,4.078,0v77.472A2.04,2.04,0,0,1,322.039,102.883Z" transform="translate(-258.838 -17.256)" fill="#fff"/>
        <path id="Path_17214" data-name="Path 17214" d="M386.039,155.6A2.04,2.04,0,0,1,384,153.557V108.7a2.039,2.039,0,0,1,4.078,0v44.853A2.04,2.04,0,0,1,386.039,155.6Z" transform="translate(-310.605 -86.279)" fill="#fff"/>
        <path id="Path_17215" data-name="Path 17215" d="M450.039,195.131A2.04,2.04,0,0,1,448,193.092V172.7a2.039,2.039,0,1,1,4.078,0v20.388A2.04,2.04,0,0,1,450.039,195.131Z" transform="translate(-362.373 -138.046)" fill="#fff"/>
      </g>
      <path id="Path_17216" data-name="Path 17216" d="M2.039,195.131A2.04,2.04,0,0,1,0,193.092V172.7a2.039,2.039,0,1,1,4.078,0v20.388A2.04,2.04,0,0,1,2.039,195.131Z" transform="translate(0 -138.046)" fill="#fff"/>
      <path id="Path_17217" data-name="Path 17217" d="M66.039,142.418A2.04,2.04,0,0,1,64,140.379V87.372a2.039,2.039,0,1,1,4.077,0v53.007A2.039,2.039,0,0,1,66.039,142.418Z" transform="translate(-51.768 -69.023)" fill="#fff"/>
      <path id="Path_17218" data-name="Path 17218" d="M130.039,89.7A2.04,2.04,0,0,1,128,87.666V2.039a2.039,2.039,0,0,1,4.078,0V87.666A2.04,2.04,0,0,1,130.039,89.7Z" transform="translate(-103.535)" fill="#fff"/>
      <path id="Path_17219" data-name="Path 17219" d="M194.039,102.883A2.04,2.04,0,0,1,192,100.844V23.372a2.039,2.039,0,1,1,4.077,0v77.472A2.039,2.039,0,0,1,194.039,102.883Z" transform="translate(-155.303 -17.256)" fill="#fff"/>
      <path id="Path_17220" data-name="Path 17220" d="M258.039,155.6A2.04,2.04,0,0,1,256,153.557V108.7a2.039,2.039,0,0,1,4.078,0v44.853A2.04,2.04,0,0,1,258.039,155.6Z" transform="translate(-207.07 -86.279)" fill="#fff"/>
      <path id="Path_17221" data-name="Path 17221" d="M322.039,102.883A2.04,2.04,0,0,1,320,100.844V23.372a2.039,2.039,0,1,1,4.078,0v77.472A2.04,2.04,0,0,1,322.039,102.883Z" transform="translate(-258.838 -17.256)" fill="#fff"/>
      <path id="Path_17222" data-name="Path 17222" d="M386.039,155.6A2.04,2.04,0,0,1,384,153.557V108.7a2.039,2.039,0,0,1,4.078,0v44.853A2.04,2.04,0,0,1,386.039,155.6Z" transform="translate(-310.605 -86.279)" fill="#fff"/>
      <path id="Path_17223" data-name="Path 17223" d="M450.039,195.131A2.04,2.04,0,0,1,448,193.092V172.7a2.039,2.039,0,1,1,4.078,0v20.388A2.04,2.04,0,0,1,450.039,195.131Z" transform="translate(-362.373 -138.046)" fill="#fff"/>
    </g>
  </g>
</svg>
