<svg xmlns="http://www.w3.org/2000/svg" width="41" height="41" viewBox="0 0 41 41">
  <g id="Group_57040" data-name="Group 57040" transform="translate(7071 -5970)">
    <g id="Group_51707" data-name="Group 51707" transform="translate(-7336 5240)">
      <circle id="Ellipse_70" data-name="Ellipse 70" cx="20.5" cy="20.5" r="20.5" transform="translate(265 730)" fill="#79d1e8"/>
      <path id="Vector" d="M4-15a.569.569,0,0,0-.4.169.58.58,0,0,0-.167.408v2.308H2.571a2.562,2.562,0,0,0-1.817.761A2.612,2.612,0,0,0,0-9.519V-2.6A2.612,2.612,0,0,0,.754-.761,2.562,2.562,0,0,0,2.571,0H13.429a2.562,2.562,0,0,0,1.817-.761A2.612,2.612,0,0,0,16-2.6V-9.519a2.612,2.612,0,0,0-.754-1.835,2.562,2.562,0,0,0-1.817-.761h-5.8L4.366-14.866A.57.57,0,0,0,4-15Z" transform="translate(294 744) rotate(180)" fill="#fff"/>
    </g>
  </g>
</svg>
