<svg xmlns="http://www.w3.org/2000/svg" width="41" height="41" viewBox="0 0 41 41">
  <g id="Group_57037" data-name="Group 57037" transform="translate(7236 -5970)">
    <g id="Group_51709" data-name="Group 51709" transform="translate(-7336 5240)">
      <circle id="Ellipse_70" data-name="Ellipse 70" cx="20.5" cy="20.5" r="20.5" transform="translate(100 730)" fill="#fff" opacity="0.34"/>
      <g id="Group_51708" data-name="Group 51708" transform="translate(3416.5 -13239)">
        <path id="Vector" d="M15,15,0,0" transform="translate(-3303.5 13980.715)" fill="none" stroke="#fff" stroke-linecap="round" stroke-width="2"/>
        <path id="Vector-2" data-name="Vector" d="M12.857,8.572V7.164a.728.728,0,0,0-.68-.733.714.714,0,0,0-.749.713V8.572a4.986,4.986,0,0,1-.12,1.088.089.089,0,0,0,.024.082l1.008,1.008a.089.089,0,0,0,.147-.032,6.4,6.4,0,0,0,.369-2.147Zm-6.429,5a5.016,5.016,0,0,1-5-5V7.164a.728.728,0,0,0-.68-.733A.714.714,0,0,0,0,7.143V8.572a6.438,6.438,0,0,0,5.714,6.389v2.183H3.592a.728.728,0,0,0-.733.68.714.714,0,0,0,.713.749H9.266a.728.728,0,0,0,.733-.68.714.714,0,0,0-.713-.749H7.143V14.961a6.387,6.387,0,0,0,2.321-.724.179.179,0,0,0,.041-.283l-.821-.821a.134.134,0,0,0-.152-.026,4.955,4.955,0,0,1-2.1.466ZM6.479,0A3.556,3.556,0,0,0,3.423,1.633a.179.179,0,0,0,.024.223l6.4,6.4A.089.089,0,0,0,10,8.2V3.613A3.6,3.6,0,0,0,6.479,0Z" transform="translate(-3302.786 13980)" fill="#fff"/>
        <path id="Vector-3" data-name="Vector" d="M.152.026A.089.089,0,0,0,0,.089V1.1a3.611,3.611,0,0,0,1.047,2.54,3.507,3.507,0,0,0,3.473.946.089.089,0,0,0,.038-.15Z" transform="translate(-3299.928 13987.43)" fill="#fff"/>
      </g>
    </g>
  </g>
</svg>
