<svg xmlns="http://www.w3.org/2000/svg" xmlns:xlink="http://www.w3.org/1999/xlink" width="14" height="15" viewBox="0 0 14 15">
  <defs>
    <clipPath id="clip-path">
      <rect id="Rectangle_18526" data-name="Rectangle 18526" width="14" height="15" transform="translate(-0.222 0.223)" fill="#c1c1c1"/>
    </clipPath>
  </defs>
  <g id="Mask_Group_162" data-name="Mask Group 162" transform="translate(0.222 -0.223)" opacity="0.7" clip-path="url(#clip-path)">
    <g id="department" transform="translate(0.473 0.285)">
      <path id="Path_54158" data-name="Path 54158" d="M6.2,3.447h.5v.5H6.2Zm0,0" transform="translate(-0.918 -0.505)" fill="#c1c1c1"/>
      <path id="Path_54159" data-name="Path 54159" d="M6.2,5.8h.5v.5H6.2Zm0,0" transform="translate(-0.918 -0.851)" fill="#c1c1c1"/>
      <path id="Path_54160" data-name="Path 54160" d="M6.2,8.161h.5v.5H6.2Zm0,0" transform="translate(-0.918 -1.196)" fill="#c1c1c1"/>
      <path id="Path_54161" data-name="Path 54161" d="M3.252,10.518h.5v.5h-.5Zm0,0" transform="translate(-0.486 -1.541)" fill="#c1c1c1"/>
      <path id="Path_54162" data-name="Path 54162" d="M13.269,6.393h.5v.5h-.5Zm0,0" transform="translate(-1.954 -0.937)" fill="#c1c1c1"/>
      <path id="Path_54163" data-name="Path 54163" d="M3.252,8.161h.5v.5h-.5Zm0,0" transform="translate(-0.486 -1.196)" fill="#c1c1c1"/>
      <path id="Path_54164" data-name="Path 54164" d="M3.252,3.447h.5v.5h-.5Zm0,0" transform="translate(-0.486 -0.505)" fill="#c1c1c1"/>
      <path id="Path_54165" data-name="Path 54165" d="M6.2,10.518h.5v.5H6.2Zm0,0" transform="translate(-0.918 -1.541)" fill="#c1c1c1"/>
      <path id="Path_54166" data-name="Path 54166" d="M3.252,5.8h.5v.5h-.5Zm0,0" transform="translate(-0.486 -0.851)" fill="#c1c1c1"/>
      <path id="Path_54167" data-name="Path 54167" d="M10.912,8.75h.5v.5h-.5Zm0,0" transform="translate(-1.609 -1.282)" fill="#c1c1c1"/>
      <path id="Path_54168" data-name="Path 54168" d="M13.269,8.75h.5v.5h-.5Zm0,0" transform="translate(-1.954 -1.282)" fill="#c1c1c1"/>
      <path id="Path_54169" data-name="Path 54169" d="M13.269,11.107h.5v.5h-.5Zm0,0" transform="translate(-1.954 -1.628)" fill="#c1c1c1"/>
      <path id="Path_54170" data-name="Path 54170" d="M10.912,6.393h.5v.5h-.5Zm0,0" transform="translate(-1.609 -0.937)" fill="#c1c1c1"/>
      <path id="Path_54171" data-name="Path 54171" d="M10.912,11.107h.5v.5h-.5Zm0,0" transform="translate(-1.609 -1.628)" fill="#c1c1c1"/>
      <path id="Path_54172" data-name="Path 54172" d="M2.957,13.464H4.466v2.012H2.957Zm0,0" transform="translate(-0.443 -1.973)" fill="#c1c1c1"/>
      <path id="Path_54173" data-name="Path 54173" d="M5.314,13.464H6.823v2.012H5.314Zm0,0" transform="translate(-0.788 -1.973)" fill="#c1c1c1"/>
      <path id="Path_54174" data-name="Path 54174" d="M11.5,14.054H13.01v1.509H11.5Zm0,0" transform="translate(-1.695 -2.06)" fill="#c1c1c1"/>
      <path id="Path_54175" data-name="Path 54175" d="M12.835,14.006V4.647L8.309,3.516v10.49h-.5V1.878L.765,0V14.006H.011v.5H13.589v-.5ZM4.789,2.691a.251.251,0,0,1,.251-.251H6.046a.251.251,0,0,1,.251.251V3.7a.251.251,0,0,1-.251.251H5.04A.251.251,0,0,1,4.789,3.7Zm0,2.012a.251.251,0,0,1,.251-.251H6.046A.251.251,0,0,1,6.3,4.7V5.708a.251.251,0,0,1-.251.251H5.04a.251.251,0,0,1-.251-.251Zm0,2.012a.251.251,0,0,1,.251-.251H6.046a.251.251,0,0,1,.251.251V7.72a.251.251,0,0,1-.251.251H5.04a.251.251,0,0,1-.251-.251Zm0,2.012a.251.251,0,0,1,.251-.251H6.046a.251.251,0,0,1,.251.251V9.731a.251.251,0,0,1-.251.251H5.04a.251.251,0,0,1-.251-.251ZM2.274,2.691a.251.251,0,0,1,.251-.251H3.531a.251.251,0,0,1,.251.251V3.7a.251.251,0,0,1-.251.251H2.526A.251.251,0,0,1,2.274,3.7Zm0,2.012a.251.251,0,0,1,.251-.251H3.531a.251.251,0,0,1,.251.251V5.708a.251.251,0,0,1-.251.251H2.526a.251.251,0,0,1-.251-.251Zm0,2.012a.251.251,0,0,1,.251-.251H3.531a.251.251,0,0,1,.251.251V7.72a.251.251,0,0,1-.251.251H2.526a.251.251,0,0,1-.251-.251Zm0,2.012a.251.251,0,0,1,.251-.251H3.531a.251.251,0,0,1,.251.251V9.731a.251.251,0,0,1-.251.251H2.526a.251.251,0,0,1-.251-.251ZM6.549,13.5v.5H2.023V11.24a.251.251,0,0,1,.251-.251H6.3a.251.251,0,0,1,.251.251Zm2.263-8.3a.251.251,0,0,1,.251-.251h1.006a.251.251,0,0,1,.251.251V6.211a.251.251,0,0,1-.251.251H9.063a.251.251,0,0,1-.251-.251Zm0,2.012a.251.251,0,0,1,.251-.251h1.006a.251.251,0,0,1,.251.251V8.222a.251.251,0,0,1-.251.251H9.063a.251.251,0,0,1-.251-.251Zm0,3.017V9.228a.251.251,0,0,1,.251-.251h1.006a.251.251,0,0,1,.251.251v1.006a.251.251,0,0,1-.251.251H9.063A.251.251,0,0,1,8.812,10.234Zm3.017,3.772H9.315V11.743a.251.251,0,0,1,.251-.251h2.012a.251.251,0,0,1,.251.251Zm.5-3.772a.251.251,0,0,1-.251.251H11.075a.251.251,0,0,1-.251-.251V9.228a.251.251,0,0,1,.251-.251h1.006a.251.251,0,0,1,.251.251Zm0-2.012a.251.251,0,0,1-.251.251H11.075a.251.251,0,0,1-.251-.251V7.217a.251.251,0,0,1,.251-.251h1.006a.251.251,0,0,1,.251.251Zm0-2.012a.251.251,0,0,1-.251.251H11.075a.251.251,0,0,1-.251-.251V5.205a.251.251,0,0,1,.251-.251h1.006a.251.251,0,0,1,.251.251Zm0,0" transform="translate(-0.011 0)" fill="#c1c1c1"/>
    </g>
  </g>
</svg>
