<svg xmlns="http://www.w3.org/2000/svg" xmlns:xlink="http://www.w3.org/1999/xlink" width="23" height="24" viewBox="0 0 23 24">
  <defs>
    <clipPath id="clip-path">
      <rect id="Rectangle_18512" data-name="Rectangle 18512" width="23" height="24" transform="translate(-4412 15566)" fill="#fff"/>
    </clipPath>
  </defs>
  <g id="Mask_Group_158" data-name="Mask Group 158" transform="translate(4412 -15566)" opacity="0.51" clip-path="url(#clip-path)">
    <path id="Vector" d="M13.57,16.938A7.124,7.124,0,0,1,10.243,15.8,21.633,21.633,0,0,1,5.017,11.9,19.83,19.83,0,0,1,1.093,6.671C-.3,4.138-.063,2.81.2,2.242A3.535,3.535,0,0,1,1.588.756,6.666,6.666,0,0,1,2.671.181l.1-.046A1.012,1.012,0,0,1,3.606.06a2.431,2.431,0,0,1,.789.6A13.108,13.108,0,0,1,6.366,3.592a2.916,2.916,0,0,1,.387,1.2,1.9,1.9,0,0,1-.482,1.127c-.05.068-.1.132-.146.2-.288.378-.351.487-.309.682a7.172,7.172,0,0,0,1.746,2.59,6.875,6.875,0,0,0,2.56,1.7c.2.043.315-.022.705-.32.056-.043.113-.087.174-.131a1.9,1.9,0,0,1,1.144-.512h0a2.74,2.74,0,0,1,1.2.423,14.443,14.443,0,0,1,2.917,1.958,2.43,2.43,0,0,1,.607.787,1.02,1.02,0,0,1-.076.832c-.014.031-.029.066-.046.1a6.673,6.673,0,0,1-.578,1.081,3.536,3.536,0,0,1-1.489,1.383A2.549,2.549,0,0,1,13.57,16.938Z" transform="translate(-4409 15570)" fill="#423869"/>
  </g>
</svg>
