<svg xmlns="http://www.w3.org/2000/svg" xmlns:xlink="http://www.w3.org/1999/xlink" width="23" height="24" viewBox="0 0 23 24">
  <defs>
    <clipPath id="clip-path">
      <rect id="Rectangle_18511" data-name="Rectangle 18511" width="23" height="24" transform="translate(-4412 15458)" fill="#fff"/>
    </clipPath>
  </defs>
  <g id="Mask_Group_157" data-name="Mask Group 157" transform="translate(4412 -15458)" opacity="0.51" clip-path="url(#clip-path)">
    <g id="Group_57017" data-name="Group 57017" transform="translate(0 1.082)">
      <path id="Path_54154" data-name="Path 54154" d="M108.763,10.27c2.335,0,4.228-2.3,4.228-5.135S112.369,0,108.763,0s-4.228,2.3-4.228,5.135S106.428,10.27,108.763,10.27Z" transform="translate(-4508.776 15458.918)" fill="#423869"/>
      <path id="Path_54155" data-name="Path 54155" d="M41.9,300.461c0-.173,0-.049,0,0Z" transform="translate(-4449.895 15176.568)" fill="#423869"/>
      <path id="Path_54156" data-name="Path 54156" d="M308.085,301.643c0-.047,0-.328,0,0Z" transform="translate(-4700.113 15175.521)" fill="#423869"/>
      <path id="Path_54157" data-name="Path 54157" d="M57.87,184.979c-.078-4.941-.724-6.348-5.661-7.239a3.469,3.469,0,0,1-4.63,0c-4.884.881-5.568,2.268-5.658,7.079-.007.393-.011.413-.012.368,0,.085,0,.243,0,.519,0,0,1.176,2.37,7.985,2.37s7.985-2.37,7.985-2.37c0-.177,0-.3,0-.384A3.185,3.185,0,0,1,57.87,184.979Z" transform="translate(-4449.907 15291.843)" fill="#423869"/>
    </g>
  </g>
</svg>
