<svg xmlns="http://www.w3.org/2000/svg" width="56" height="56" viewBox="0 0 56 56">
  <g id="Group_57042" data-name="Group 57042" transform="translate(-1354 -40)">
    <rect id="Rectangle_18209" data-name="Rectangle 18209" width="56" height="56" rx="10" transform="translate(1354 40)" fill="#423869"/>
    <g id="Group_56280" data-name="Group 56280" transform="translate(1049 55)">
      <g id="Icons_16px_Arrow-Outline-Left_Copy" data-name="Icons/16px/Arrow-Outline-Left Copy" transform="translate(322 3)">
        <path id="Combined_Shape" data-name="Combined Shape" d="M6.786,19.25a2.338,2.338,0,0,1,.017-.307.271.271,0,0,1,.269-.244h4.855a.271.271,0,0,1,.27.244,2.853,2.853,0,0,1,.017.307,2.714,2.714,0,1,1-5.428,0ZM.95,17.325a.963.963,0,0,1,0-1.926,1.434,1.434,0,0,0,1.424-1.443V9.276A7.638,7.638,0,0,1,8.55,1.513V.963a.95.95,0,1,1,1.9,0v.551a7.637,7.637,0,0,1,6.174,7.763v4.68A1.434,1.434,0,0,0,18.05,15.4a.963.963,0,0,1,0,1.926Z" fill="#fff"/>
      </g>
      <circle id="Oval" cx="5.5" cy="5.5" r="5.5" transform="translate(334 2)" fill="#ffe580"/>
    </g>
  </g>
</svg>
