<svg xmlns="http://www.w3.org/2000/svg" width="7.701" height="18.48" viewBox="0 0 7.701 18.48">
  <path id="Path_54141" data-name="Path 54141" d="M1.54,18.489a1.587,1.587,0,0,0,.477-.072l4.634-1.544A1.554,1.554,0,0,0,7.7,15.409V1.548A1.542,1.542,0,0,0,6.16.008,1.588,1.588,0,0,0,5.682.08L1.048,1.624A1.554,1.554,0,0,0,0,3.088v13.86a1.542,1.542,0,0,0,1.54,1.54ZM6.16,1.163a.386.386,0,0,1,.385.385v13.86a.4.4,0,0,1-.267.371L1.665,17.317a.418.418,0,0,1-.126.017.386.386,0,0,1-.385-.385V3.088a.4.4,0,0,1,.267-.371L6.034,1.18a.418.418,0,0,1,.125-.017Zm0,0" transform="translate(0 -0.008)" fill="#fff"/>
</svg>
