<svg xmlns="http://www.w3.org/2000/svg" xmlns:xlink="http://www.w3.org/1999/xlink" width="23" height="24" viewBox="0 0 23 24">
  <defs>
    <clipPath id="clip-path">
      <rect id="Rectangle_18530" data-name="Rectangle 18530" width="23" height="24" transform="translate(-4412 15566)" fill="#fff"/>
    </clipPath>
  </defs>
  <g id="phone" transform="translate(4412 -15566)" opacity="0.51" clip-path="url(#clip-path)">
    <g id="Vector" transform="translate(-4409 15570)" fill="none">
      <path d="M13.57,16.938A7.124,7.124,0,0,1,10.243,15.8,21.633,21.633,0,0,1,5.017,11.9,19.83,19.83,0,0,1,1.093,6.671C-.3,4.138-.063,2.81.2,2.242A3.535,3.535,0,0,1,1.588.756,6.666,6.666,0,0,1,2.671.181l.1-.046A1.012,1.012,0,0,1,3.606.06a2.431,2.431,0,0,1,.789.6A13.108,13.108,0,0,1,6.366,3.592a2.916,2.916,0,0,1,.387,1.2,1.9,1.9,0,0,1-.482,1.127c-.05.068-.1.132-.146.2-.288.378-.351.487-.309.682a7.172,7.172,0,0,0,1.746,2.59,6.875,6.875,0,0,0,2.56,1.7c.2.043.315-.022.705-.32.056-.043.113-.087.174-.131a1.9,1.9,0,0,1,1.144-.512h0a2.74,2.74,0,0,1,1.2.423,14.443,14.443,0,0,1,2.917,1.958,2.43,2.43,0,0,1,.607.787,1.02,1.02,0,0,1-.076.832c-.014.031-.029.066-.046.1a6.673,6.673,0,0,1-.578,1.081,3.536,3.536,0,0,1-1.489,1.383A2.549,2.549,0,0,1,13.57,16.938Z" stroke="none"/>
      <path d="M 13.59712219238281 15.93832206726074 C 13.82470226287842 15.93832206726074 14.05374240875244 15.88688278198242 14.25947189331055 15.78957271575928 L 14.26501178741455 15.78697204589844 C 14.68207359313965 15.59281635284424 14.96445274353027 15.32305812835693 15.34342288970947 14.7565450668335 C 15.53365993499756 14.46777057647705 15.69827938079834 14.1597900390625 15.8340015411377 13.83816242218018 C 15.85038185119629 13.79971218109131 15.86606216430664 13.76449203491211 15.88057231903076 13.73199272155762 L 15.88802146911621 13.71524238586426 C 15.9002161026001 13.6876745223999 15.91675090789795 13.65028190612793 15.92715454101562 13.62275695800781 C 15.8945198059082 13.56969833374023 15.8005313873291 13.45535659790039 15.55839157104492 13.2112922668457 C 14.99252223968506 12.6403923034668 13.55011177062988 11.76951217651367 12.90170192718506 11.44242286682129 L 12.89569187164307 11.43939208984375 C 12.53591156005859 11.25794219970703 12.27597236633301 11.1268424987793 12.1451416015625 11.1268424987793 C 12.05186176300049 11.1268424987793 11.9137716293335 11.20614242553711 11.59789180755615 11.44112205505371 L 11.59372234344482 11.44421291351318 C 11.54728221893311 11.4783821105957 11.50263214111328 11.51259231567383 11.45907211303711 11.54590225219727 L 11.43436241149902 11.56478214263916 C 11.07229232788086 11.84124279022217 10.73030185699463 12.10236263275146 10.22576236724854 12.10236263275146 C 10.12332153320312 12.10236263275146 10.02115154266357 12.09117221832275 9.913782119750977 12.06823253631592 C 9.248102188110352 11.92626285552979 7.950041770935059 11.18611240386963 6.855581760406494 10.09404277801514 C 5.776741981506348 9.017572402954102 4.982471942901611 7.678642272949219 4.83748197555542 7.004352569580078 C 4.695821762084961 6.339852333068848 5.017712116241455 5.916862487792969 5.328221797943115 5.508842468261719 L 5.334171772003174 5.501002311706543 C 5.376542091369629 5.445182323455811 5.420181751251221 5.387762546539307 5.464751720428467 5.326862335205078 C 5.680391788482666 5.032872676849365 5.753171920776367 4.897702217102051 5.753171920776367 4.792242527008057 C 5.753021717071533 4.644132614135742 5.630692005157471 4.381382465362549 5.460432052612305 4.015672206878662 C 5.148022174835205 3.347192525863647 4.267831802368164 1.944552421569824 3.691571950912476 1.376222491264343 C 3.447316408157349 1.134990334510803 3.332417726516724 1.041277289390564 3.277138471603394 1.008035182952881 C 3.249749183654785 1.018588662147522 3.212334871292114 1.035438537597656 3.182832002639771 1.048722386360168 C 3.147801876068115 1.064342498779297 3.108561992645264 1.081632494926453 3.066351890563965 1.099782466888428 L 3.056881904602051 1.103802442550659 C 2.737822294235229 1.237143158912659 2.429349422454834 1.400713920593262 2.139964818954468 1.589999556541443 C 1.571763396263123 1.969838380813599 1.301796436309814 2.251445531845093 1.108551979064941 2.66613245010376 C 0.8693019151687622 3.177692413330078 0.96971195936203 4.371852397918701 1.969131946563721 6.189472675323486 C 3.16159200668335 8.359362602233887 3.968682050704956 9.433782577514648 5.723152160644531 11.18715286254883 C 7.515841960906982 12.97515201568604 8.917112350463867 13.91409206390381 10.73032188415527 14.93091201782227 C 11.92662239074707 15.59928226470947 12.88196182250977 15.93817234039307 13.56979179382324 15.93817234039307 L 13.59712219238281 15.93832206726074 M 13.59712219238281 16.93831825256348 C 13.58800601959229 16.93831825256348 13.57891273498535 16.93827056884766 13.56979179382324 16.93817329406738 C 12.83175182342529 16.93817329406738 11.79502201080322 16.67124176025391 10.24258232116699 15.8039026260376 C 8.354762077331543 14.74524211883545 6.894571781158447 13.76787281036377 5.016972064971924 11.89518260955811 C 3.206661939620972 10.086012840271 2.325711965560913 8.914682388305664 1.092751979827881 6.671082496643066 C -0.3001380562782288 4.137872219085693 -0.06269806623458862 2.810012340545654 0.2027219384908676 2.242492437362671 C 0.5188119411468506 1.564192414283752 0.9853719472885132 1.158502459526062 1.58843195438385 0.7558324337005615 C 1.930961966514587 0.5314124226570129 2.293452024459839 0.3390324413776398 2.671291828155518 0.1811324506998062 C 2.709101915359497 0.1648724377155304 2.744261980056763 0.1493724435567856 2.775641918182373 0.1353824436664581 C 2.962801694869995 0.05107241123914719 3.246362447738647 -0.07634741812944412 3.605551958084106 0.05977244302630424 C 3.845262050628662 0.1497524380683899 4.059261798858643 0.3338824510574341 4.394251823425293 0.6647124290466309 C 5.081242084503174 1.342252492904663 6.020051956176758 2.851222515106201 6.366382122039795 3.59228253364563 C 6.598911762237549 4.091742515563965 6.752791881561279 4.421432495117188 6.753171920776367 4.791212558746338 C 6.753171920776367 5.224122524261475 6.535391807556152 5.557982444763184 6.271101951599121 5.918302536010742 C 6.221571922302246 5.985982418060303 6.172421932220459 6.050632476806641 6.124782085418701 6.113402366638184 C 5.837051868438721 6.49149227142334 5.773911952972412 6.600762367248535 5.815502166748047 6.795852661132812 C 5.899811744689941 7.18793249130249 6.528582096099854 8.3551025390625 7.561912059783936 9.386162757873535 C 8.595232009887695 10.41722202301025 9.728752136230469 11.00628280639648 10.12235164642334 11.09022235870361 C 10.32575798034668 11.13370037078857 10.43730068206787 11.06791305541992 10.82749176025391 10.76998233795166 C 10.88344192504883 10.72725200653076 10.9409122467041 10.68302249908447 11.00103187561035 10.6387825012207 C 11.40408229827881 10.33895206451416 11.72243213653564 10.1268424987793 12.1451416015625 10.1268424987793 L 12.14741230010986 10.1268424987793 C 12.51529216766357 10.1268424987793 12.83024215698242 10.28640270233154 13.35201168060303 10.54955291748047 C 14.03257179260254 10.89286231994629 15.58691215515137 11.8195629119873 16.26861190795898 12.5073127746582 C 16.6002025604248 12.84154224395752 16.78508186340332 13.0547924041748 16.87544250488281 13.29412269592285 C 17.01156234741211 13.65444278717041 16.88339233398438 13.93688201904297 16.79983139038086 14.12592220306396 C 16.78584098815918 14.15730285644531 16.77034187316895 14.19171237945557 16.75408172607422 14.22990226745605 C 16.59493255615234 14.60706233978271 16.40142250061035 14.96879291534424 16.17598152160645 15.31049251556396 C 15.77406215667725 15.91165256500244 15.36686229705811 16.37708282470703 14.68705177307129 16.69355201721191 C 14.34621715545654 16.85476303100586 13.97393703460693 16.93831825256348 13.59712219238281 16.93831825256348 Z" stroke="none" fill="#423869"/>
    </g>
  </g>
</svg>
