<svg xmlns="http://www.w3.org/2000/svg" width="22.616" height="18.226" viewBox="0 0 22.616 18.226">
  <g id="projector" transform="translate(0 -49.689)">
    <path id="Path_54131" data-name="Path 54131" d="M20.821,185.169H19.334a4.722,4.722,0,0,0-8.735,0H4.653a.331.331,0,1,0,0,.663h5.73a4.717,4.717,0,0,0,1.238,4.46H.663v-3.328a1.134,1.134,0,0,1,1.132-1.132H3.328a.331.331,0,1,0,0-.663H1.795A1.8,1.8,0,0,0,0,186.964v4.391a1.8,1.8,0,0,0,1.795,1.795h.4v.779a.685.685,0,0,0,.685.685H5.1a.685.685,0,0,0,.685-.685v-.779H9.9a.331.331,0,1,0,0-.663H8.712v-1.533h3.733a4.713,4.713,0,0,0,5.045,0h4.464v.4a1.134,1.134,0,0,1-1.132,1.132H11.227a.331.331,0,1,0,0,.663h5.6v.779a.685.685,0,0,0,.685.685h2.22a.685.685,0,0,0,.685-.685v-.779h.4a1.8,1.8,0,0,0,1.795-1.795v-4.391A1.8,1.8,0,0,0,20.821,185.169Zm-1.063,8.759a.022.022,0,0,1-.022.022h-2.22a.022.022,0,0,1-.022-.022v-.779h2.265Zm-19.1-2.574v-.4h3v1.533H1.795a1.134,1.134,0,0,1-1.132-1.132Zm4.46,2.574a.022.022,0,0,1-.022.022H2.88a.022.022,0,0,1-.022-.022v-.779H5.122Zm2.927-1.441H4.321v-1.533H8.05v1.533Zm2.858-5.523a4.059,4.059,0,1,1,4.059,4.059,4.064,4.064,0,0,1-4.059-4.059Zm7.406,3.328a4.717,4.717,0,0,0,1.237-4.46h1.27a1.134,1.134,0,0,1,1.132,1.132v3.328Z" transform="translate(0 -126.698)" fill="#fff"/>
    <path id="Path_54132" data-name="Path 54132" d="M268.325,215.376a3.258,3.258,0,1,0,3.258,3.258A3.262,3.262,0,0,0,268.325,215.376Zm0,5.854a2.6,2.6,0,1,1,2.6-2.6A2.6,2.6,0,0,1,268.325,221.23Z" transform="translate(-253.358 -158.368)" fill="#fff"/>
    <path id="Path_54133" data-name="Path 54133" d="M332.4,248.51a1.063,1.063,0,1,0,1.063,1.063A1.064,1.064,0,0,0,332.4,248.51Zm0,1.464a.4.4,0,1,1,.4-.4A.4.4,0,0,1,332.4,249.974Z" transform="translate(-316.698 -190.039)" fill="#2bc184"/>
    <path id="Path_54134" data-name="Path 54134" d="M99.73,332.007h2.2a.331.331,0,0,0,0-.663h-2.2a.331.331,0,0,0,0,.663Z" transform="translate(-95.008 -269.214)" fill="#fff"/>
    <path id="Path_54135" data-name="Path 54135" d="M99.73,298.873h2.2a.331.331,0,0,0,0-.663h-2.2a.331.331,0,0,0,0,.663Z" transform="translate(-95.008 -237.543)" fill="#fff"/>
    <path id="Path_54136" data-name="Path 54136" d="M275.624,115.956a3.253,3.253,0,0,0-2.883,1.738.331.331,0,0,0,.586.31,2.6,2.6,0,0,1,4.594,0,.331.331,0,1,0,.586-.31A3.253,3.253,0,0,0,275.624,115.956Z" transform="translate(-260.657 -63.34)" fill="#fff"/>
    <path id="Path_54137" data-name="Path 54137" d="M259.167,85.242a.331.331,0,0,0,.265-.53,4.723,4.723,0,0,0-7.555,0,.331.331,0,0,0,.53.4,4.06,4.06,0,0,1,6.5,0A.33.33,0,0,0,259.167,85.242Z" transform="translate(-240.687 -31.67)" fill="#fff"/>
    <path id="Path_54138" data-name="Path 54138" d="M231.772,52.265a.331.331,0,0,0,.468-.031,5.523,5.523,0,0,1,8.308,0,.331.331,0,0,0,.5-.437,6.186,6.186,0,0,0-9.3,0A.331.331,0,0,0,231.772,52.265Z" transform="translate(-221.427)" fill="#fff"/>
  </g>
</svg>
