<svg xmlns="http://www.w3.org/2000/svg" width="8" height="15" viewBox="0 0 8 15">
  <path id="Vector" d="M2.037,4.469v5.665a1.638,1.638,0,0,0,.438,1.1,1.4,1.4,0,0,0,2.061,0,1.638,1.638,0,0,0,.438-1.1l0-7.426A2.852,2.852,0,0,0,4.8,1.674,2.7,2.7,0,0,0,4.261.8,2.488,2.488,0,0,0,3.45.207a2.33,2.33,0,0,0-1.919,0A2.488,2.488,0,0,0,.719.8a2.7,2.7,0,0,0-.538.879A2.852,2.852,0,0,0,0,2.708v7.476A4.011,4.011,0,0,0,.252,11.64a3.8,3.8,0,0,0,.755,1.239,3.5,3.5,0,0,0,1.142.829,3.276,3.276,0,0,0,2.7,0,3.5,3.5,0,0,0,1.142-.829,3.8,3.8,0,0,0,.755-1.239A4.011,4.011,0,0,0,7,10.184V3.2" transform="translate(0.5 0.5)" fill="none" stroke="#02100f" stroke-linecap="round" stroke-width="1"/>
</svg>
