<svg xmlns="http://www.w3.org/2000/svg" width="4.247" height="19.247" viewBox="0 0 4.247 19.247">
  <g id="Group_57007" data-name="Group 57007" transform="translate(8.494 0.196) rotate(90)">
    <path id="Path" d="M2.124,0A2.138,2.138,0,0,0,0,2.123,2.138,2.138,0,0,0,2.124,4.247,2.138,2.138,0,0,0,4.247,2.123,2.138,2.138,0,0,0,2.124,0Z" transform="translate(7.804 4.247)" fill="#a5aab8"/>
    <path id="Path-2" data-name="Path" d="M2.124,0A2.138,2.138,0,0,0,0,2.123,2.138,2.138,0,0,0,2.124,4.247,2.138,2.138,0,0,0,4.247,2.123,2.138,2.138,0,0,0,2.124,0Z" transform="translate(14.804 4.247)" fill="#a5aab8"/>
    <path id="Path-3" data-name="Path" d="M2.124,0A2.152,2.152,0,0,0,0,2.123,2.126,2.126,0,0,0,2.124,4.247,2.152,2.152,0,0,0,4.247,2.123,2.179,2.179,0,0,0,2.124,0Z" transform="translate(-0.196 4.247)" fill="#a5aab8"/>
  </g>
</svg>
