<svg xmlns="http://www.w3.org/2000/svg" width="41" height="41" viewBox="0 0 41 41">
  <g id="Group_57056" data-name="Group 57056" transform="translate(1730 -4133)">
    <g id="Call_end" data-name="Call end" transform="translate(-1730 4133)">
      <circle id="Ellipse_70" data-name="Ellipse 70" cx="20.5" cy="20.5" r="20.5" transform="translate(0)" fill="#ff4b6a"/>
      <path id="Icon_awesome-phone-alt" data-name="Icon awesome-phone-alt" d="M15.941,11.254,12.313,9.883a.862.862,0,0,0-.944.283L9.6,12.267A10.369,10.369,0,0,1,4.062,6.749L6.172,4.99a.852.852,0,0,0,.284-.94L5.078.438A.715.715,0,0,0,4.191.032l-3.5,1a.921.921,0,0,0-.663.81A13.377,13.377,0,0,0,14.54,16.288a.923.923,0,0,0,.813-.661l1-3.487a.714.714,0,0,0-.412-.886Z" transform="matrix(-0.695, 0.719, -0.719, -0.695, 32.437, 21.684)" fill="#fff"/>
    </g>
  </g>
</svg>
