<svg xmlns="http://www.w3.org/2000/svg" width="19.185" height="19.185" viewBox="0 0 19.185 19.185">
  <g id="Group_57006" data-name="Group 57006" transform="translate(0.8 0.8)">
    <circle id="Ellipse_21" data-name="Ellipse 21" cx="2.398" cy="2.398" r="2.398" transform="translate(6.395 6.395)" fill="none" stroke="#a5aab8" stroke-linecap="round" stroke-linejoin="round" stroke-width="1.6"/>
    <path id="Path_46" data-name="Path 46" d="M15.707,12.19a1.319,1.319,0,0,0,.264,1.455l.048.048a1.6,1.6,0,1,1-2.262,2.262l-.048-.048a1.33,1.33,0,0,0-2.254.943v.136a1.6,1.6,0,1,1-3.2,0v-.072a1.319,1.319,0,0,0-.863-1.207,1.319,1.319,0,0,0-1.455.264l-.048.048A1.6,1.6,0,1,1,3.63,13.757l.048-.048a1.33,1.33,0,0,0-.943-2.254H2.6a1.6,1.6,0,0,1,0-3.2h.072a1.319,1.319,0,0,0,1.207-.863A1.319,1.319,0,0,0,3.614,5.94l-.048-.048A1.6,1.6,0,1,1,5.828,3.63l.048.048a1.319,1.319,0,0,0,1.455.264h.064a1.319,1.319,0,0,0,.8-1.207V2.6a1.6,1.6,0,1,1,3.2,0v.072a1.33,1.33,0,0,0,2.254.943l.048-.048a1.6,1.6,0,1,1,2.262,2.262l-.048.048a1.319,1.319,0,0,0-.264,1.455v.064a1.319,1.319,0,0,0,1.207.8h.136a1.6,1.6,0,1,1,0,3.2h-.072A1.319,1.319,0,0,0,15.707,12.19Z" transform="translate(-1 -1)" fill="none" stroke="#a5aab8" stroke-linecap="round" stroke-linejoin="round" stroke-width="1.6"/>
  </g>
</svg>
