<svg xmlns="http://www.w3.org/2000/svg" width="18.481" height="18.48" viewBox="0 0 18.481 18.48">
  <g id="Group_57008" data-name="Group 57008" transform="translate(-12748.5 -11849)">
    <path id="Path_54139" data-name="Path 54139" d="M277.91,209.163h7.315a.578.578,0,1,0,0-1.155H277.91a.578.578,0,1,0,0,1.155Zm0,0" transform="translate(12471.169 11648.5)" fill="#fff"/>
    <path id="Path_54140" data-name="Path 54140" d="M403.47,134.9a.578.578,0,0,0,.408-.986l-2.48-2.479,2.48-2.48a.578.578,0,0,0-.817-.817l-2.888,2.888a.578.578,0,0,0,0,.817l2.888,2.888A.574.574,0,0,0,403.47,134.9Zm0,0" transform="translate(12348.496 11725.648)" fill="#fff"/>
    <path id="Path_54141" data-name="Path 54141" d="M1.54,18.489a1.587,1.587,0,0,0,.477-.072l4.634-1.544A1.554,1.554,0,0,0,7.7,15.409V1.548A1.542,1.542,0,0,0,6.16.008,1.588,1.588,0,0,0,5.682.08L1.048,1.624A1.554,1.554,0,0,0,0,3.088v13.86a1.542,1.542,0,0,0,1.54,1.54ZM6.16,1.163a.386.386,0,0,1,.385.385v13.86a.4.4,0,0,1-.267.371L1.665,17.317a.418.418,0,0,1-.126.017.386.386,0,0,1-.385-.385V3.088a.4.4,0,0,1,.267-.371L6.034,1.18a.418.418,0,0,1,.125-.017Zm0,0" transform="translate(12759.281 11848.992)" fill="#fff"/>
    <path id="Path_54142" data-name="Path 54142" d="M27.245,6.168a.578.578,0,0,0,.578-.578V2.126a.964.964,0,0,1,.962-.963h8.663a.578.578,0,1,0,0-1.155H28.785a2.119,2.119,0,0,0-2.118,2.118V5.591A.578.578,0,0,0,27.245,6.168Zm0,0" transform="translate(12727.993 11848.992)" fill="#fff"/>
    <path id="Path_54143" data-name="Path 54143" d="M183.45,283.5h3.08a.578.578,0,1,0,0-1.155h-3.08a.964.964,0,0,1-.962-.963v-3.465a.578.578,0,0,0-1.155,0v3.465A2.119,2.119,0,0,0,183.45,283.5Zm0,0" transform="translate(12573.329 11581.67)" fill="#fff"/>
  </g>
</svg>
