<svg xmlns="http://www.w3.org/2000/svg" width="13.285" height="18" viewBox="0 0 13.285 18">
  <path id="microphone" d="M12.667,1.2,10.241,3.623V3.415a3.415,3.415,0,1,0-6.829,0V9.546a3.415,3.415,0,0,0,.1.809L2.423,11.442a4.815,4.815,0,0,1-.408-1.949.432.432,0,0,0-.865,0,5.663,5.663,0,0,0,.624,2.6L.248,13.617a.432.432,0,1,0,.612.611l1.382-1.382a5.716,5.716,0,0,0,.569.663,5.631,5.631,0,0,0,3.481,1.636v1.991h-1.6a.432.432,0,0,0,0,.865H8.965a.432.432,0,1,0,0-.865H7.156V15.16A5.669,5.669,0,0,0,12.5,9.493a.432.432,0,1,0-.865,0,4.815,4.815,0,0,1-8.777,2.733l1-1a3.413,3.413,0,0,0,6.383-1.7V4.846l3.038-3.038a.432.432,0,0,0-.611-.611ZM4.277,9.546V3.415a2.55,2.55,0,1,1,5.1,0V4.488l-5.1,5.1c0-.014,0-.027,0-.041Zm5.1-.021A2.549,2.549,0,0,1,4.5,10.587L9.376,5.711Zm0,0" transform="translate(-0.12)" fill="#fff"/>
</svg>
