<svg xmlns="http://www.w3.org/2000/svg" width="22" height="13.863" viewBox="0 0 22 13.863">
  <path id="video-camera" d="M21.773,1.236a.467.467,0,0,0-.461-.008L16.263,3.984V2.33A2.333,2.333,0,0,0,13.933,0H2.331A2.333,2.333,0,0,0,0,2.33v9.2a2.333,2.333,0,0,0,2.331,2.331h11.6a2.333,2.333,0,0,0,2.331-2.331V9.909l5.048,2.756a.466.466,0,0,0,.69-.409V1.637a.466.466,0,0,0-.228-.4Zm-6.442,10.3a1.4,1.4,0,0,1-1.4,1.4H2.331a1.4,1.4,0,0,1-1.4-1.4V2.33a1.4,1.4,0,0,1,1.4-1.4h11.6a1.4,1.4,0,0,1,1.4,1.4Zm5.738-.062L16.263,8.847v-3.8l4.805-2.624Zm0,0" transform="translate(-0.001)" fill="#fff"/>
</svg>
